<svg width="60" height="42" viewBox="0 0 60 42" fill="none" xmlns="http://www.w3.org/2000/svg">
<path d="M55.8622 0.827148H4.13802C2.13837 0.827148 0.517334 2.44819 0.517334 4.44784V37.5513C0.517334 39.5509 2.13837 41.172 4.13802 41.172H55.8622C57.8618 41.172 59.4829 39.5509 59.4829 37.5513V4.44784C59.4829 2.44819 57.8618 0.827148 55.8622 0.827148Z" fill="white"/>
<path fill-rule="evenodd" clip-rule="evenodd" d="M18.1833 14.7517C17.747 15.2739 17.0487 15.6858 16.3504 15.6269C16.2631 14.9209 16.6049 14.1708 17.005 13.7075C17.4414 13.1706 18.2051 12.7882 18.8235 12.7588C18.8962 13.4942 18.6125 14.2149 18.1833 14.7517ZM18.8161 15.7667C18.201 15.7309 17.6397 15.9537 17.1863 16.1337C16.8946 16.2495 16.6474 16.3476 16.4595 16.3476C16.2485 16.3476 15.9913 16.2443 15.7024 16.1282C15.3239 15.9762 14.8912 15.8024 14.4374 15.8107C13.3973 15.8255 12.4298 16.4212 11.8988 17.3698C10.8078 19.2672 11.6152 22.0765 12.6698 23.6209C13.1864 24.3857 13.8046 25.2241 14.6192 25.1946C14.9777 25.181 15.2355 25.0704 15.5023 24.9559C15.8094 24.8241 16.1285 24.6872 16.6267 24.6872C17.1078 24.6872 17.4129 24.8205 17.7058 24.9485C17.9843 25.0703 18.2518 25.1871 18.6488 25.1799C19.4927 25.1652 20.0236 24.4151 20.5401 23.6502C21.0974 22.8294 21.3422 22.0283 21.3795 21.9067L21.3838 21.8927C21.3838 21.8927 21.376 21.8885 21.3638 21.8829C21.1775 21.7967 19.7536 21.1376 19.7399 19.3702C19.7263 17.8867 20.8694 17.1351 21.0494 17.0167C21.0603 17.0095 21.0677 17.0046 21.071 17.0021C20.3436 15.9138 19.2089 15.796 18.8161 15.7667ZM24.6569 25.099V13.634H28.912C31.1088 13.634 32.6435 15.1635 32.6435 17.3993C32.6435 19.6349 31.0796 21.1793 28.8539 21.1793H26.4172V25.099H24.6569ZM26.4172 15.1342H28.4465C29.974 15.1342 30.8468 15.9578 30.8468 17.4066C30.8468 18.8554 29.974 19.6864 28.4393 19.6864H26.4172V15.1342ZM38.4551 23.7238C37.9896 24.621 36.964 25.1873 35.8585 25.1873C34.2218 25.1873 33.0799 24.2018 33.0799 22.7163C33.0799 21.2455 34.1855 20.3998 36.2295 20.2747L38.4261 20.1423V19.5099C38.4261 18.5759 37.8224 18.0685 36.7459 18.0685C35.8585 18.0685 35.2111 18.5318 35.0801 19.2378H33.4945C33.5454 17.7522 34.9275 16.6712 36.7968 16.6712C38.8115 16.6712 40.1209 17.7375 40.1209 19.3922V25.099H38.4916V23.7238H38.4551ZM36.3312 23.8268C35.393 23.8268 34.7965 23.3708 34.7965 22.6721C34.7965 21.9515 35.3711 21.5322 36.4695 21.4661L38.4261 21.3411V21.9882C38.4261 23.0619 37.5241 23.8268 36.3312 23.8268ZM45.5252 25.5477C44.8197 27.5553 44.0123 28.2172 42.2957 28.2172C42.1648 28.2172 41.7284 28.2025 41.6265 28.1731V26.7979C41.7356 26.8125 42.0048 26.8272 42.143 26.8272C42.9212 26.8272 43.3577 26.4963 43.6267 25.6359L43.7868 25.1284L40.8046 16.7815H42.6448L44.7178 23.5547H44.7542L46.8272 16.7815H48.6166L45.5252 25.5477Z" fill="black"/>
</svg>
