<svg width="199" height="39" viewBox="0 0 199 39" fill="none" xmlns="http://www.w3.org/2000/svg">
<g filter="url(#filter0_dd_318_2717)">
<g clip-path="url(#clip0_318_2717)">
<rect x="4" width="191" height="31" rx="1.5" fill="#0BD219"/>
<g clip-path="url(#clip1_318_2717)" filter="url(#filter1_ddd_318_2717)">
<rect width="183" height="25" transform="translate(8 3)" fill="#11FF21"/>
<g clip-path="url(#clip2_318_2717)" filter="url(#filter2_dd_318_2717)">
<rect width="179" height="19" transform="translate(10 6)" fill="#25EB32"/>
<g filter="url(#filter3_ddddd_318_2717)">
<path d="M18.77 19.494C19.0593 19.494 19.2647 19.5733 19.386 19.732C19.5073 19.8813 19.568 20.04 19.568 20.208C19.568 20.4413 19.4513 20.6887 19.218 20.95C18.9847 21.2113 18.6813 21.454 18.308 21.678C17.944 21.8927 17.552 22.07 17.132 22.21C16.712 22.35 16.3107 22.42 15.928 22.42C15.3587 22.42 14.8127 22.266 14.29 21.958C13.7767 21.6407 13.3567 21.1973 13.03 20.628C12.7127 20.0587 12.554 19.382 12.554 18.598C12.554 17.954 12.6753 17.3147 12.918 16.68C13.17 16.0453 13.5013 15.434 13.912 14.846C14.332 14.258 14.7893 13.712 15.284 13.208C15.788 12.704 16.292 12.2653 16.796 11.892C17.3093 11.5187 17.7807 11.2293 18.21 11.024C18.6393 10.8093 18.9847 10.702 19.246 10.702C19.5727 10.702 19.8153 10.786 19.974 10.954C20.142 11.1127 20.226 11.3367 20.226 11.626C20.226 11.8593 20.1793 12.0413 20.086 12.172C20.002 12.2933 19.8667 12.4007 19.68 12.494C19.0827 12.802 18.476 13.1753 17.86 13.614C17.2533 14.0527 16.698 14.538 16.194 15.07C15.69 15.5927 15.284 16.1433 14.976 16.722C14.668 17.3007 14.514 17.8887 14.514 18.486C14.514 19.1393 14.6447 19.634 14.906 19.97C15.1673 20.306 15.522 20.474 15.97 20.474C16.194 20.474 16.4367 20.4273 16.698 20.334C16.9593 20.2313 17.216 20.1147 17.468 19.984C17.7293 19.8533 17.972 19.7413 18.196 19.648C18.4293 19.5453 18.6207 19.494 18.77 19.494ZM27.1572 22.336C26.4479 22.336 25.8179 22.154 25.2672 21.79C24.7165 21.426 24.2825 20.922 23.9652 20.278C23.6572 19.6247 23.5032 18.878 23.5032 18.038C23.5032 17.4127 23.6292 16.806 23.8812 16.218C24.1332 15.6207 24.4132 15.098 24.7212 14.65C24.6839 14.51 24.6652 14.3373 24.6652 14.132C24.6652 13.88 24.7679 13.5907 24.9732 13.264C25.1785 12.9373 25.4632 12.62 25.8272 12.312C26.2005 12.004 26.6345 11.7473 27.1292 11.542C27.6332 11.3367 28.1792 11.234 28.7672 11.234C29.6819 11.234 30.4519 11.4207 31.0772 11.794C31.7025 12.1673 32.1739 12.6573 32.4912 13.264C32.8179 13.8707 32.9812 14.5287 32.9812 15.238C32.9812 16.2647 32.8132 17.212 32.4772 18.08C32.1412 18.948 31.6932 19.6993 31.1332 20.334C30.5732 20.9687 29.9479 21.4633 29.2572 21.818C28.5665 22.1633 27.8665 22.336 27.1572 22.336ZM27.3252 13.558C27.3345 13.586 27.3392 13.614 27.3392 13.642C27.3392 13.7353 27.3205 13.838 27.2832 13.95C27.2459 14.0527 27.1712 14.1553 27.0592 14.258C26.8725 14.4447 26.6859 14.706 26.4992 15.042C26.3125 15.3687 26.1399 15.7327 25.9812 16.134C25.8319 16.5353 25.7105 16.946 25.6172 17.366C25.5239 17.786 25.4772 18.1873 25.4772 18.57C25.4772 19.0927 25.5985 19.5267 25.8412 19.872C26.0932 20.2173 26.4852 20.39 27.0172 20.39C27.4652 20.39 27.8899 20.2873 28.2912 20.082C28.6925 19.8673 29.0612 19.5827 29.3972 19.228C29.7332 18.864 30.0225 18.4627 30.2652 18.024C30.5079 17.576 30.6945 17.1233 30.8252 16.666C30.9652 16.1993 31.0352 15.756 31.0352 15.336C31.0352 14.944 30.9512 14.58 30.7832 14.244C30.6245 13.908 30.3912 13.6373 30.0832 13.432C29.7752 13.2173 29.3925 13.11 28.9352 13.11C28.5992 13.11 28.2959 13.152 28.0252 13.236C27.7639 13.32 27.5305 13.4273 27.3252 13.558ZM46.616 22.196C46.3453 22.196 46.14 22.112 46 21.944C45.8693 21.776 45.804 21.5473 45.804 21.258C45.804 21.0247 45.8133 20.824 45.832 20.656C45.8507 20.488 45.888 20.3107 45.944 20.124C46 19.928 46.07 19.69 46.154 19.41C46.2473 19.1207 46.364 18.752 46.504 18.304C46.588 18.0427 46.6907 17.702 46.812 17.282C46.9427 16.8527 47.0733 16.386 47.204 15.882C47.3347 15.3687 47.442 14.8553 47.526 14.342C47.6193 13.8193 47.666 13.3387 47.666 12.9C47.666 12.6013 47.6007 12.326 47.47 12.074C46.602 12.9327 45.7807 14.0527 45.006 15.434C44.2407 16.8153 43.5593 18.4207 42.962 20.25C42.7847 20.7073 42.5793 21.0153 42.346 21.174C42.1127 21.3233 41.8887 21.398 41.674 21.398C41.6087 21.398 41.5107 21.3607 41.38 21.286C41.2493 21.202 41.128 21.0527 41.016 20.838C40.904 20.6233 40.848 20.32 40.848 19.928C40.848 19.8347 40.8713 19.718 40.918 19.578C40.9647 19.4287 41.0347 19.27 41.128 19.102C41.212 18.6167 41.2727 18.0987 41.31 17.548C41.3567 16.988 41.3847 16.4327 41.394 15.882C41.4127 15.322 41.422 14.7993 41.422 14.314C41.422 13.9407 41.394 13.614 41.338 13.334C40.8807 13.9127 40.4467 14.6127 40.036 15.434C39.6253 16.2553 39.252 17.128 38.916 18.052C38.5893 18.976 38.3187 19.8813 38.104 20.768C38.048 20.9827 37.9827 21.1833 37.908 21.37C37.8333 21.5473 37.7213 21.692 37.572 21.804C37.432 21.9067 37.2267 21.958 36.956 21.958C36.6573 21.958 36.4333 21.8367 36.284 21.594C36.1347 21.3513 36.06 21.0293 36.06 20.628C36.06 20.32 36.1253 19.9233 36.256 19.438C36.3867 18.9433 36.564 18.4067 36.788 17.828C37.012 17.24 37.2687 16.6427 37.558 16.036C37.8567 15.42 38.1693 14.8273 38.496 14.258C38.8227 13.6887 39.154 13.18 39.49 12.732C39.8353 12.2747 40.162 11.9153 40.47 11.654C40.7873 11.3833 41.0767 11.248 41.338 11.248C41.3473 11.248 41.3613 11.248 41.38 11.248C41.5853 11.248 41.772 11.2667 41.94 11.304C42.1173 11.332 42.2713 11.43 42.402 11.598C42.542 11.7567 42.6633 12.0227 42.766 12.396C42.8687 12.7693 42.9573 13.2967 43.032 13.978C43.0507 14.146 43.0647 14.3467 43.074 14.58C43.0833 14.804 43.088 15.0373 43.088 15.28C43.396 14.5893 43.732 13.9407 44.096 13.334C44.4693 12.7273 44.852 12.1907 45.244 11.724C45.6453 11.2573 46.042 10.8933 46.434 10.632C46.826 10.3707 47.19 10.24 47.526 10.24C47.918 10.24 48.282 10.338 48.618 10.534C48.954 10.7207 49.2247 11.038 49.43 11.486C49.6353 11.934 49.738 12.5453 49.738 13.32C49.738 14.1413 49.6633 14.9393 49.514 15.714C49.3647 16.4793 49.178 17.2027 48.954 17.884C48.73 18.5653 48.506 19.1907 48.282 19.76C48.058 20.32 47.8713 20.8053 47.722 21.216C47.6007 21.5053 47.4607 21.7433 47.302 21.93C47.1433 22.1073 46.9147 22.196 46.616 22.196ZM60.0698 18.444C59.5284 18.444 58.9964 18.3787 58.4738 18.248C57.9604 18.1173 57.4751 17.9493 57.0178 17.744C56.8124 18.584 56.6351 19.5033 56.4858 20.502C56.4484 20.782 56.3924 21.0387 56.3178 21.272C56.2431 21.496 56.1264 21.678 55.9678 21.818C55.8091 21.958 55.5758 22.028 55.2678 22.028C54.9784 22.028 54.7871 21.916 54.6938 21.692C54.6004 21.468 54.5538 21.1927 54.5538 20.866C54.5538 20.7633 54.5911 20.4973 54.6658 20.068C54.7404 19.6387 54.8338 19.1207 54.9458 18.514C55.0578 17.898 55.1744 17.2633 55.2958 16.61C54.9131 16.2273 54.7218 15.8773 54.7218 15.56C54.7218 15.4013 54.7684 15.252 54.8618 15.112C54.9644 14.9627 55.1604 14.888 55.4498 14.888C55.4871 14.888 55.5384 14.902 55.6038 14.93C55.6971 14.4073 55.7764 13.9407 55.8418 13.53C55.9164 13.11 55.9584 12.8067 55.9678 12.62C55.9864 12.2653 56.0424 12.004 56.1358 11.836C56.2291 11.6587 56.3458 11.542 56.4858 11.486C56.6351 11.4207 56.7844 11.388 56.9338 11.388C57.1298 11.388 57.2791 11.43 57.3818 11.514C57.4844 11.598 57.5358 11.7847 57.5358 12.074C57.5358 12.354 57.5311 12.6107 57.5218 12.844C57.9791 12.06 58.4551 11.5093 58.9498 11.192C59.4444 10.8653 59.9858 10.702 60.5738 10.702C61.1524 10.702 61.6564 10.8607 62.0858 11.178C62.5151 11.4953 62.8464 11.9527 63.0798 12.55C63.3224 13.138 63.4438 13.8473 63.4438 14.678C63.4438 15.9473 63.1498 16.8947 62.5618 17.52C61.9831 18.136 61.1524 18.444 60.0698 18.444ZM57.4938 16.092C57.8391 16.2787 58.2078 16.442 58.5998 16.582C58.9918 16.7127 59.3931 16.778 59.8038 16.778C60.4664 16.778 60.9518 16.6053 61.2598 16.26C61.5771 15.9147 61.7358 15.3453 61.7358 14.552C61.7358 13.1427 61.3111 12.438 60.4618 12.438C59.9204 12.438 59.3931 12.7413 58.8798 13.348C58.3758 13.9547 57.9138 14.8693 57.4938 16.092ZM69.4826 22.728C69.1373 22.728 68.7779 22.644 68.4046 22.476C68.0313 22.3173 67.7139 22.0467 67.4526 21.664C67.2006 21.2813 67.0746 20.7727 67.0746 20.138C67.0746 19.466 67.1306 18.7707 67.2426 18.052C67.3639 17.324 67.5179 16.61 67.7046 15.91C67.9006 15.2007 68.1106 14.5333 68.3346 13.908C68.5679 13.2827 68.7966 12.7273 69.0206 12.242C69.2539 11.7567 69.4686 11.3787 69.6646 11.108C69.8699 10.828 70.0333 10.688 70.1546 10.688C70.4066 10.688 70.6306 10.7813 70.8266 10.968C71.0319 11.1547 71.1346 11.4393 71.1346 11.822C71.1346 11.9153 71.0786 12.144 70.9666 12.508C70.8639 12.8627 70.7286 13.306 70.5606 13.838C70.4019 14.37 70.2246 14.9487 70.0286 15.574C69.8419 16.19 69.6646 16.8153 69.4966 17.45C69.3379 18.0847 69.2026 18.682 69.0906 19.242C68.9879 19.802 68.9366 20.2827 68.9366 20.684C68.9366 20.796 69.0019 20.852 69.1326 20.852C69.3193 20.852 69.5946 20.8053 69.9586 20.712C70.3319 20.6187 70.7379 20.502 71.1766 20.362C71.6246 20.2127 72.0539 20.068 72.4646 19.928C72.8753 19.788 73.2253 19.6713 73.5146 19.578C73.8039 19.4847 73.9673 19.438 74.0046 19.438C74.2379 19.438 74.4246 19.5033 74.5646 19.634C74.7046 19.7647 74.7746 19.9513 74.7746 20.194C74.7746 20.362 74.6626 20.558 74.4386 20.782C74.2146 20.9967 73.9159 21.2207 73.5426 21.454C73.1693 21.678 72.7493 21.8833 72.2826 22.07C71.8253 22.266 71.3539 22.4247 70.8686 22.546C70.3833 22.6673 69.9213 22.728 69.4826 22.728ZM80.5652 22.112C80.3132 22.112 80.0379 22.0513 79.7392 21.93C79.4499 21.7993 79.1746 21.58 78.9132 21.272C78.6519 20.964 78.4372 20.5393 78.2692 19.998C78.1012 19.4567 78.0172 18.7707 78.0172 17.94C78.0172 17.324 78.0966 16.6987 78.2552 16.064C78.4232 15.42 78.6846 14.8133 79.0392 14.244C79.3939 13.6747 79.8512 13.18 80.4112 12.76C80.9806 12.34 81.6619 12.046 82.4552 11.878C82.7819 11.8033 83.1552 11.7333 83.5752 11.668C84.0046 11.5933 84.4386 11.528 84.8772 11.472C85.3159 11.4067 85.7312 11.3553 86.1232 11.318C86.5246 11.2807 86.8606 11.262 87.1312 11.262C87.5792 11.262 87.9152 11.3227 88.1392 11.444C88.3632 11.5653 88.5126 11.7053 88.5872 11.864C88.6619 12.0133 88.6992 12.1487 88.6992 12.27C88.6992 12.4193 88.6526 12.5687 88.5592 12.718C88.4752 12.8673 88.2419 12.9653 87.8592 13.012C87.7752 13.0213 87.5979 13.0447 87.3272 13.082C87.0566 13.11 86.7299 13.152 86.3472 13.208C85.9739 13.264 85.5772 13.3247 85.1572 13.39C84.7466 13.446 84.3452 13.5067 83.9532 13.572C83.5706 13.628 83.2392 13.6793 82.9592 13.726C82.3432 13.838 81.8439 14.0247 81.4612 14.286C81.0786 14.538 80.7799 14.8367 80.5652 15.182C80.3599 15.5273 80.2106 15.8913 80.1172 16.274C80.4906 16.19 80.8779 16.106 81.2792 16.022C81.6806 15.938 82.0586 15.8633 82.4132 15.798C82.7772 15.7327 83.0899 15.6813 83.3512 15.644C83.6126 15.6067 83.7899 15.588 83.8832 15.588C84.2472 15.588 84.4666 15.6347 84.5412 15.728C84.6252 15.8213 84.6672 15.966 84.6672 16.162C84.6672 16.3393 84.5086 16.5447 84.1912 16.778C83.8739 17.002 83.3699 17.2307 82.6792 17.464C81.9886 17.6973 81.0832 17.9027 79.9632 18.08C79.9632 18.0893 79.9632 18.094 79.9632 18.094C79.9446 18.2807 79.9306 18.4953 79.9212 18.738C79.9119 18.9713 79.9072 19.2047 79.9072 19.438C79.9072 19.6713 79.9212 19.8627 79.9492 20.012C79.9772 20.1613 80.0286 20.236 80.1032 20.236C80.3086 20.236 80.5932 20.194 80.9572 20.11C81.3212 20.026 81.7039 19.9233 82.1052 19.802C82.5066 19.6807 82.8799 19.564 83.2252 19.452C83.5706 19.3307 83.8226 19.2373 83.9812 19.172C84.2146 19.0787 84.4479 18.9853 84.6812 18.892C84.9239 18.7987 85.1152 18.752 85.2552 18.752C85.3952 18.752 85.5166 18.808 85.6192 18.92C85.7219 19.0227 85.7546 19.1813 85.7172 19.396C85.7079 19.4893 85.6099 19.6433 85.4232 19.858C85.2459 20.0633 84.9986 20.2967 84.6812 20.558C84.3732 20.81 84.0046 21.0573 83.5752 21.3C83.1552 21.5333 82.6886 21.7293 82.1752 21.888C81.6712 22.0373 81.1346 22.112 80.5652 22.112ZM91.9272 13.474C91.4792 13.474 91.1479 13.432 90.9332 13.348C90.7279 13.2547 90.5926 13.1473 90.5272 13.026C90.4712 12.8953 90.4432 12.7787 90.4432 12.676C90.4432 12.5453 90.5179 12.396 90.6672 12.228C90.8166 12.0507 91.1059 11.92 91.5352 11.836C91.9646 11.7427 92.4732 11.6587 93.0612 11.584C93.6492 11.5 94.2746 11.43 94.9372 11.374C95.5999 11.3087 96.2719 11.2527 96.9532 11.206C97.6346 11.1593 98.2832 11.1267 98.8992 11.108C99.5152 11.08 100.061 11.066 100.537 11.066C101.032 11.066 101.415 11.094 101.685 11.15C101.956 11.206 102.147 11.276 102.259 11.36C102.381 11.444 102.451 11.5327 102.469 11.626C102.497 11.7193 102.511 11.808 102.511 11.892C102.511 11.9107 102.511 11.9247 102.511 11.934C102.511 12.046 102.483 12.1673 102.427 12.298C102.381 12.4287 102.273 12.5407 102.105 12.634C101.937 12.718 101.685 12.76 101.349 12.76C101.228 12.76 100.957 12.7787 100.537 12.816C100.117 12.8533 99.6039 12.9 98.9972 12.956C98.3906 13.012 97.7466 13.068 97.0652 13.124C96.9626 13.544 96.8459 14.034 96.7152 14.594C96.5939 15.154 96.4679 15.742 96.3372 16.358C96.2159 16.974 96.0992 17.5807 95.9872 18.178C95.8752 18.766 95.7819 19.312 95.7072 19.816C95.6326 20.3107 95.5812 20.7167 95.5532 21.034C95.5159 21.4633 95.3899 21.7667 95.1752 21.944C94.9699 22.112 94.7646 22.196 94.5592 22.196C94.4099 22.196 94.2606 22.1633 94.1112 22.098C93.9619 22.042 93.8406 21.916 93.7472 21.72C93.6539 21.5147 93.6072 21.2113 93.6072 20.81C93.6072 20.3993 93.6446 19.8953 93.7192 19.298C93.7939 18.6913 93.8919 18.0427 94.0132 17.352C94.1439 16.6613 94.2886 15.966 94.4472 15.266C94.6152 14.566 94.7879 13.9127 94.9652 13.306C94.3399 13.3527 93.7612 13.3947 93.2292 13.432C92.6972 13.46 92.2632 13.474 91.9272 13.474ZM105.995 22.112C105.743 22.112 105.468 22.0513 105.169 21.93C104.88 21.7993 104.604 21.58 104.343 21.272C104.082 20.964 103.867 20.5393 103.699 19.998C103.531 19.4567 103.447 18.7707 103.447 17.94C103.447 17.324 103.526 16.6987 103.685 16.064C103.853 15.42 104.114 14.8133 104.469 14.244C104.824 13.6747 105.281 13.18 105.841 12.76C106.41 12.34 107.092 12.046 107.885 11.878C108.212 11.8033 108.585 11.7333 109.005 11.668C109.434 11.5933 109.868 11.528 110.307 11.472C110.746 11.4067 111.161 11.3553 111.553 11.318C111.954 11.2807 112.29 11.262 112.561 11.262C113.009 11.262 113.345 11.3227 113.569 11.444C113.793 11.5653 113.942 11.7053 114.017 11.864C114.092 12.0133 114.129 12.1487 114.129 12.27C114.129 12.4193 114.082 12.5687 113.989 12.718C113.905 12.8673 113.672 12.9653 113.289 13.012C113.205 13.0213 113.028 13.0447 112.757 13.082C112.486 13.11 112.16 13.152 111.777 13.208C111.404 13.264 111.007 13.3247 110.587 13.39C110.176 13.446 109.775 13.5067 109.383 13.572C109 13.628 108.669 13.6793 108.389 13.726C107.773 13.838 107.274 14.0247 106.891 14.286C106.508 14.538 106.21 14.8367 105.995 15.182C105.79 15.5273 105.64 15.8913 105.547 16.274C105.92 16.19 106.308 16.106 106.709 16.022C107.11 15.938 107.488 15.8633 107.843 15.798C108.207 15.7327 108.52 15.6813 108.781 15.644C109.042 15.6067 109.22 15.588 109.313 15.588C109.677 15.588 109.896 15.6347 109.971 15.728C110.055 15.8213 110.097 15.966 110.097 16.162C110.097 16.3393 109.938 16.5447 109.621 16.778C109.304 17.002 108.8 17.2307 108.109 17.464C107.418 17.6973 106.513 17.9027 105.393 18.08C105.393 18.0893 105.393 18.094 105.393 18.094C105.374 18.2807 105.36 18.4953 105.351 18.738C105.342 18.9713 105.337 19.2047 105.337 19.438C105.337 19.6713 105.351 19.8627 105.379 20.012C105.407 20.1613 105.458 20.236 105.533 20.236C105.738 20.236 106.023 20.194 106.387 20.11C106.751 20.026 107.134 19.9233 107.535 19.802C107.936 19.6807 108.31 19.564 108.655 19.452C109 19.3307 109.252 19.2373 109.411 19.172C109.644 19.0787 109.878 18.9853 110.111 18.892C110.354 18.7987 110.545 18.752 110.685 18.752C110.825 18.752 110.946 18.808 111.049 18.92C111.152 19.0227 111.184 19.1813 111.147 19.396C111.138 19.4893 111.04 19.6433 110.853 19.858C110.676 20.0633 110.428 20.2967 110.111 20.558C109.803 20.81 109.434 21.0573 109.005 21.3C108.585 21.5333 108.118 21.7293 107.605 21.888C107.101 22.0373 106.564 22.112 105.995 22.112ZM125.253 22.336C124.544 22.336 123.914 22.154 123.363 21.79C122.812 21.426 122.378 20.922 122.061 20.278C121.753 19.6247 121.599 18.878 121.599 18.038C121.599 17.4127 121.725 16.806 121.977 16.218C122.229 15.6207 122.509 15.098 122.817 14.65C122.78 14.51 122.761 14.3373 122.761 14.132C122.761 13.88 122.864 13.5907 123.069 13.264C123.274 12.9373 123.559 12.62 123.923 12.312C124.296 12.004 124.73 11.7473 125.225 11.542C125.729 11.3367 126.275 11.234 126.863 11.234C127.778 11.234 128.548 11.4207 129.173 11.794C129.798 12.1673 130.27 12.6573 130.587 13.264C130.914 13.8707 131.077 14.5287 131.077 15.238C131.077 16.2647 130.909 17.212 130.573 18.08C130.237 18.948 129.789 19.6993 129.229 20.334C128.669 20.9687 128.044 21.4633 127.353 21.818C126.662 22.1633 125.962 22.336 125.253 22.336ZM125.421 13.558C125.43 13.586 125.435 13.614 125.435 13.642C125.435 13.7353 125.416 13.838 125.379 13.95C125.342 14.0527 125.267 14.1553 125.155 14.258C124.968 14.4447 124.782 14.706 124.595 15.042C124.408 15.3687 124.236 15.7327 124.077 16.134C123.928 16.5353 123.806 16.946 123.713 17.366C123.62 17.786 123.573 18.1873 123.573 18.57C123.573 19.0927 123.694 19.5267 123.937 19.872C124.189 20.2173 124.581 20.39 125.113 20.39C125.561 20.39 125.986 20.2873 126.387 20.082C126.788 19.8673 127.157 19.5827 127.493 19.228C127.829 18.864 128.118 18.4627 128.361 18.024C128.604 17.576 128.79 17.1233 128.921 16.666C129.061 16.1993 129.131 15.756 129.131 15.336C129.131 14.944 129.047 14.58 128.879 14.244C128.72 13.908 128.487 13.6373 128.179 13.432C127.871 13.2173 127.488 13.11 127.031 13.11C126.695 13.11 126.392 13.152 126.121 13.236C125.86 13.32 125.626 13.4273 125.421 13.558ZM135.89 21.93C135.544 21.93 135.288 21.7947 135.12 21.524C134.952 21.244 134.868 20.74 134.868 20.012C134.868 19.0787 134.952 18.1593 135.12 17.254C135.297 16.3487 135.544 15.4993 135.862 14.706C136.188 13.9127 136.58 13.2173 137.038 12.62C137.504 12.0133 138.032 11.542 138.62 11.206C139.208 10.8607 139.847 10.688 140.538 10.688C141.564 10.688 142.325 10.9633 142.82 11.514C143.324 12.0553 143.576 12.8533 143.576 13.908C143.576 14.468 143.464 14.9673 143.24 15.406C143.016 15.8353 142.722 16.176 142.358 16.428C142.003 16.6707 141.62 16.792 141.21 16.792C140.976 16.792 140.729 16.75 140.468 16.666C140.972 17.3193 141.476 17.8887 141.98 18.374C142.493 18.8593 143.002 19.3073 143.506 19.718C144.019 20.1193 144.532 20.53 145.046 20.95C145.316 21.1647 145.47 21.3933 145.508 21.636C145.545 21.8787 145.48 22.084 145.312 22.252C145.153 22.4293 144.906 22.518 144.57 22.518C144.308 22.518 143.977 22.4013 143.576 22.168C143.174 21.944 142.74 21.6407 142.274 21.258C141.807 20.866 141.34 20.432 140.874 19.956C140.416 19.48 139.996 18.9947 139.614 18.5C139.24 18.0053 138.937 17.534 138.704 17.086C138.48 16.638 138.368 16.2553 138.368 15.938C138.368 15.6393 138.447 15.4107 138.606 15.252C138.764 15.084 138.97 15 139.222 15C139.427 15 139.614 15.028 139.782 15.084C139.959 15.14 140.146 15.168 140.342 15.168C140.547 15.168 140.762 15.112 140.986 15C141.219 14.888 141.415 14.7153 141.574 14.482C141.732 14.2393 141.812 13.9313 141.812 13.558C141.812 13.1473 141.695 12.872 141.462 12.732C141.238 12.592 140.934 12.522 140.552 12.522C140.02 12.522 139.539 12.7087 139.11 13.082C138.68 13.4553 138.307 13.9827 137.99 14.664C137.672 15.3453 137.416 16.148 137.22 17.072C137.033 17.996 136.907 19.004 136.842 20.096C136.804 20.8053 136.711 21.2907 136.562 21.552C136.412 21.804 136.188 21.93 135.89 21.93ZM149.734 22.854C149.463 22.854 149.249 22.7793 149.09 22.63C148.941 22.49 148.866 22.2893 148.866 22.028C148.866 21.7853 148.931 21.58 149.062 21.412C149.193 21.2347 149.445 21.0667 149.818 20.908C149.846 20.8987 149.874 20.8893 149.902 20.88C149.669 20.8333 149.505 20.7027 149.412 20.488C149.328 20.2733 149.286 20.026 149.286 19.746C149.286 19.5873 149.314 19.3307 149.37 18.976C149.426 18.6213 149.496 18.2153 149.58 17.758C149.664 17.3007 149.753 16.848 149.846 16.4C149.939 15.9427 150.019 15.5413 150.084 15.196C150.261 14.4027 150.49 13.7027 150.77 13.096C151.05 12.4893 151.428 12.018 151.904 11.682C152.38 11.3367 152.991 11.164 153.738 11.164C154.307 11.164 154.867 11.2853 155.418 11.528C155.978 11.7613 156.487 12.0927 156.944 12.522C157.401 12.9513 157.765 13.4553 158.036 14.034C158.316 14.6127 158.456 15.2473 158.456 15.938C158.456 16.722 158.148 17.5107 157.532 18.304C156.916 19.0973 156.053 19.858 154.942 20.586C153.841 21.3047 152.553 21.9533 151.078 22.532C150.835 22.6253 150.616 22.7 150.42 22.756C150.233 22.8213 150.005 22.854 149.734 22.854ZM150.938 20.474C152.291 19.9327 153.383 19.4147 154.214 18.92C155.045 18.4253 155.647 17.9027 156.02 17.352C156.403 16.8013 156.594 16.176 156.594 15.476C156.594 15.084 156.463 14.7107 156.202 14.356C155.941 14.0013 155.605 13.7167 155.194 13.502C154.783 13.278 154.349 13.166 153.892 13.166C153.397 13.166 153.001 13.3667 152.702 13.768C152.403 14.16 152.165 14.832 151.988 15.784C151.904 16.1667 151.815 16.582 151.722 17.03C151.638 17.4687 151.554 17.8933 151.47 18.304C151.395 18.7053 151.33 19.0413 151.274 19.312C151.227 19.5827 151.199 19.7413 151.19 19.788C151.143 20.068 151.059 20.2967 150.938 20.474ZM165.098 22.112C164.846 22.112 164.571 22.0513 164.272 21.93C163.983 21.7993 163.708 21.58 163.446 21.272C163.185 20.964 162.97 20.5393 162.802 19.998C162.634 19.4567 162.55 18.7707 162.55 17.94C162.55 17.324 162.63 16.6987 162.788 16.064C162.956 15.42 163.218 14.8133 163.572 14.244C163.927 13.6747 164.384 13.18 164.944 12.76C165.514 12.34 166.195 12.046 166.988 11.878C167.315 11.8033 167.688 11.7333 168.108 11.668C168.538 11.5933 168.972 11.528 169.41 11.472C169.849 11.4067 170.264 11.3553 170.656 11.318C171.058 11.2807 171.394 11.262 171.664 11.262C172.112 11.262 172.448 11.3227 172.672 11.444C172.896 11.5653 173.046 11.7053 173.12 11.864C173.195 12.0133 173.232 12.1487 173.232 12.27C173.232 12.4193 173.186 12.5687 173.092 12.718C173.008 12.8673 172.775 12.9653 172.392 13.012C172.308 13.0213 172.131 13.0447 171.86 13.082C171.59 13.11 171.263 13.152 170.88 13.208C170.507 13.264 170.11 13.3247 169.69 13.39C169.28 13.446 168.878 13.5067 168.486 13.572C168.104 13.628 167.772 13.6793 167.492 13.726C166.876 13.838 166.377 14.0247 165.994 14.286C165.612 14.538 165.313 14.8367 165.098 15.182C164.893 15.5273 164.744 15.8913 164.65 16.274C165.024 16.19 165.411 16.106 165.812 16.022C166.214 15.938 166.592 15.8633 166.946 15.798C167.31 15.7327 167.623 15.6813 167.884 15.644C168.146 15.6067 168.323 15.588 168.416 15.588C168.78 15.588 169 15.6347 169.074 15.728C169.158 15.8213 169.2 15.966 169.2 16.162C169.2 16.3393 169.042 16.5447 168.724 16.778C168.407 17.002 167.903 17.2307 167.212 17.464C166.522 17.6973 165.616 17.9027 164.496 18.08C164.496 18.0893 164.496 18.094 164.496 18.094C164.478 18.2807 164.464 18.4953 164.454 18.738C164.445 18.9713 164.44 19.2047 164.44 19.438C164.44 19.6713 164.454 19.8627 164.482 20.012C164.51 20.1613 164.562 20.236 164.636 20.236C164.842 20.236 165.126 20.194 165.49 20.11C165.854 20.026 166.237 19.9233 166.638 19.802C167.04 19.6807 167.413 19.564 167.758 19.452C168.104 19.3307 168.356 19.2373 168.514 19.172C168.748 19.0787 168.981 18.9853 169.214 18.892C169.457 18.7987 169.648 18.752 169.788 18.752C169.928 18.752 170.05 18.808 170.152 18.92C170.255 19.0227 170.288 19.1813 170.25 19.396C170.241 19.4893 170.143 19.6433 169.956 19.858C169.779 20.0633 169.532 20.2967 169.214 20.558C168.906 20.81 168.538 21.0573 168.108 21.3C167.688 21.5333 167.222 21.7293 166.708 21.888C166.204 22.0373 165.668 22.112 165.098 22.112ZM176.057 21.93C175.712 21.93 175.455 21.7947 175.287 21.524C175.119 21.244 175.035 20.74 175.035 20.012C175.035 19.0787 175.119 18.1593 175.287 17.254C175.465 16.3487 175.712 15.4993 176.029 14.706C176.356 13.9127 176.748 13.2173 177.205 12.62C177.672 12.0133 178.199 11.542 178.787 11.206C179.375 10.8607 180.015 10.688 180.705 10.688C181.732 10.688 182.493 10.9633 182.987 11.514C183.491 12.0553 183.743 12.8533 183.743 13.908C183.743 14.468 183.631 14.9673 183.407 15.406C183.183 15.8353 182.889 16.176 182.525 16.428C182.171 16.6707 181.788 16.792 181.377 16.792C181.144 16.792 180.897 16.75 180.635 16.666C181.139 17.3193 181.643 17.8887 182.147 18.374C182.661 18.8593 183.169 19.3073 183.673 19.718C184.187 20.1193 184.7 20.53 185.213 20.95C185.484 21.1647 185.638 21.3933 185.675 21.636C185.713 21.8787 185.647 22.084 185.479 22.252C185.321 22.4293 185.073 22.518 184.737 22.518C184.476 22.518 184.145 22.4013 183.743 22.168C183.342 21.944 182.908 21.6407 182.441 21.258C181.975 20.866 181.508 20.432 181.041 19.956C180.584 19.48 180.164 18.9947 179.781 18.5C179.408 18.0053 179.105 17.534 178.871 17.086C178.647 16.638 178.535 16.2553 178.535 15.938C178.535 15.6393 178.615 15.4107 178.773 15.252C178.932 15.084 179.137 15 179.389 15C179.595 15 179.781 15.028 179.949 15.084C180.127 15.14 180.313 15.168 180.509 15.168C180.715 15.168 180.929 15.112 181.153 15C181.387 14.888 181.583 14.7153 181.741 14.482C181.9 14.2393 181.979 13.9313 181.979 13.558C181.979 13.1473 181.863 12.872 181.629 12.732C181.405 12.592 181.102 12.522 180.719 12.522C180.187 12.522 179.707 12.7087 179.277 13.082C178.848 13.4553 178.475 13.9827 178.157 14.664C177.84 15.3453 177.583 16.148 177.387 17.072C177.201 17.996 177.075 19.004 177.009 20.096C176.972 20.8053 176.879 21.2907 176.729 21.552C176.58 21.804 176.356 21.93 176.057 21.93Z" fill="black"/>
</g>
</g>
</g>
</g>
<rect x="4.5" y="0.5" width="190" height="30" rx="1" stroke="black"/>
</g>
<defs>
<filter id="filter0_dd_318_2717" x="0" y="0" width="199" height="39" filterUnits="userSpaceOnUse" color-interpolation-filters="sRGB">
<feFlood flood-opacity="0" result="BackgroundImageFix"/>
<feColorMatrix in="SourceAlpha" type="matrix" values="0 0 0 0 0 0 0 0 0 0 0 0 0 0 0 0 0 0 127 0" result="hardAlpha"/>
<feOffset dy="4"/>
<feGaussianBlur stdDeviation="2"/>
<feComposite in2="hardAlpha" operator="out"/>
<feColorMatrix type="matrix" values="0 0 0 0 0 0 0 0 0 0 0 0 0 0 0 0 0 0 0.25 0"/>
<feBlend mode="normal" in2="BackgroundImageFix" result="effect1_dropShadow_318_2717"/>
<feColorMatrix in="SourceAlpha" type="matrix" values="0 0 0 0 0 0 0 0 0 0 0 0 0 0 0 0 0 0 127 0" result="hardAlpha"/>
<feOffset dy="4"/>
<feGaussianBlur stdDeviation="2"/>
<feComposite in2="hardAlpha" operator="out"/>
<feColorMatrix type="matrix" values="0 0 0 0 0 0 0 0 0 0 0 0 0 0 0 0 0 0 0.25 0"/>
<feBlend mode="normal" in2="effect1_dropShadow_318_2717" result="effect2_dropShadow_318_2717"/>
<feBlend mode="normal" in="SourceGraphic" in2="effect2_dropShadow_318_2717" result="shape"/>
</filter>
<filter id="filter1_ddd_318_2717" x="4" y="3" width="191" height="33" filterUnits="userSpaceOnUse" color-interpolation-filters="sRGB">
<feFlood flood-opacity="0" result="BackgroundImageFix"/>
<feColorMatrix in="SourceAlpha" type="matrix" values="0 0 0 0 0 0 0 0 0 0 0 0 0 0 0 0 0 0 127 0" result="hardAlpha"/>
<feOffset dy="4"/>
<feGaussianBlur stdDeviation="2"/>
<feComposite in2="hardAlpha" operator="out"/>
<feColorMatrix type="matrix" values="0 0 0 0 0 0 0 0 0 0 0 0 0 0 0 0 0 0 0.25 0"/>
<feBlend mode="normal" in2="BackgroundImageFix" result="effect1_dropShadow_318_2717"/>
<feColorMatrix in="SourceAlpha" type="matrix" values="0 0 0 0 0 0 0 0 0 0 0 0 0 0 0 0 0 0 127 0" result="hardAlpha"/>
<feOffset dy="4"/>
<feGaussianBlur stdDeviation="2"/>
<feComposite in2="hardAlpha" operator="out"/>
<feColorMatrix type="matrix" values="0 0 0 0 0 0 0 0 0 0 0 0 0 0 0 0 0 0 0.25 0"/>
<feBlend mode="normal" in2="effect1_dropShadow_318_2717" result="effect2_dropShadow_318_2717"/>
<feColorMatrix in="SourceAlpha" type="matrix" values="0 0 0 0 0 0 0 0 0 0 0 0 0 0 0 0 0 0 127 0" result="hardAlpha"/>
<feOffset dy="4"/>
<feGaussianBlur stdDeviation="2"/>
<feComposite in2="hardAlpha" operator="out"/>
<feColorMatrix type="matrix" values="0 0 0 0 0 0 0 0 0 0 0 0 0 0 0 0 0 0 0.25 0"/>
<feBlend mode="normal" in2="effect2_dropShadow_318_2717" result="effect3_dropShadow_318_2717"/>
<feBlend mode="normal" in="SourceGraphic" in2="effect3_dropShadow_318_2717" result="shape"/>
</filter>
<filter id="filter2_dd_318_2717" x="-10" y="-18" width="227" height="67" filterUnits="userSpaceOnUse" color-interpolation-filters="sRGB">
<feFlood flood-opacity="0" result="BackgroundImageFix"/>
<feColorMatrix in="SourceAlpha" type="matrix" values="0 0 0 0 0 0 0 0 0 0 0 0 0 0 0 0 0 0 127 0" result="hardAlpha"/>
<feMorphology radius="20" operator="dilate" in="SourceAlpha" result="effect1_dropShadow_318_2717"/>
<feOffset dx="4"/>
<feGaussianBlur stdDeviation="2"/>
<feComposite in2="hardAlpha" operator="out"/>
<feColorMatrix type="matrix" values="0 0 0 0 0 0 0 0 0 0 0 0 0 0 0 0 0 0 0.25 0"/>
<feBlend mode="normal" in2="BackgroundImageFix" result="effect1_dropShadow_318_2717"/>
<feColorMatrix in="SourceAlpha" type="matrix" values="0 0 0 0 0 0 0 0 0 0 0 0 0 0 0 0 0 0 127 0" result="hardAlpha"/>
<feOffset dy="4"/>
<feGaussianBlur stdDeviation="2"/>
<feComposite in2="hardAlpha" operator="out"/>
<feColorMatrix type="matrix" values="0 0 0 0 0 0 0 0 0 0 0 0 0 0 0 0 0 0 0.25 0"/>
<feBlend mode="normal" in2="effect1_dropShadow_318_2717" result="effect2_dropShadow_318_2717"/>
<feBlend mode="normal" in="SourceGraphic" in2="effect2_dropShadow_318_2717" result="shape"/>
</filter>
<filter id="filter3_ddddd_318_2717" x="8.55396" y="10.2402" width="181.177" height="20.6133" filterUnits="userSpaceOnUse" color-interpolation-filters="sRGB">
<feFlood flood-opacity="0" result="BackgroundImageFix"/>
<feColorMatrix in="SourceAlpha" type="matrix" values="0 0 0 0 0 0 0 0 0 0 0 0 0 0 0 0 0 0 127 0" result="hardAlpha"/>
<feOffset dy="4"/>
<feGaussianBlur stdDeviation="2"/>
<feComposite in2="hardAlpha" operator="out"/>
<feColorMatrix type="matrix" values="0 0 0 0 0 0 0 0 0 0 0 0 0 0 0 0 0 0 0.25 0"/>
<feBlend mode="normal" in2="BackgroundImageFix" result="effect1_dropShadow_318_2717"/>
<feColorMatrix in="SourceAlpha" type="matrix" values="0 0 0 0 0 0 0 0 0 0 0 0 0 0 0 0 0 0 127 0" result="hardAlpha"/>
<feOffset dy="4"/>
<feGaussianBlur stdDeviation="2"/>
<feComposite in2="hardAlpha" operator="out"/>
<feColorMatrix type="matrix" values="0 0 0 0 0 0 0 0 0 0 0 0 0 0 0 0 0 0 0.25 0"/>
<feBlend mode="normal" in2="effect1_dropShadow_318_2717" result="effect2_dropShadow_318_2717"/>
<feColorMatrix in="SourceAlpha" type="matrix" values="0 0 0 0 0 0 0 0 0 0 0 0 0 0 0 0 0 0 127 0" result="hardAlpha"/>
<feOffset dy="4"/>
<feGaussianBlur stdDeviation="2"/>
<feComposite in2="hardAlpha" operator="out"/>
<feColorMatrix type="matrix" values="0 0 0 0 0 0 0 0 0 0 0 0 0 0 0 0 0 0 0.25 0"/>
<feBlend mode="normal" in2="effect2_dropShadow_318_2717" result="effect3_dropShadow_318_2717"/>
<feColorMatrix in="SourceAlpha" type="matrix" values="0 0 0 0 0 0 0 0 0 0 0 0 0 0 0 0 0 0 127 0" result="hardAlpha"/>
<feOffset dy="4"/>
<feGaussianBlur stdDeviation="2"/>
<feComposite in2="hardAlpha" operator="out"/>
<feColorMatrix type="matrix" values="0 0 0 0 0 0 0 0 0 0 0 0 0 0 0 0 0 0 0.25 0"/>
<feBlend mode="normal" in2="effect3_dropShadow_318_2717" result="effect4_dropShadow_318_2717"/>
<feColorMatrix in="SourceAlpha" type="matrix" values="0 0 0 0 0 0 0 0 0 0 0 0 0 0 0 0 0 0 127 0" result="hardAlpha"/>
<feOffset dy="4"/>
<feGaussianBlur stdDeviation="2"/>
<feComposite in2="hardAlpha" operator="out"/>
<feColorMatrix type="matrix" values="0 0 0 0 0 0 0 0 0 0 0 0 0 0 0 0 0 0 0.25 0"/>
<feBlend mode="normal" in2="effect4_dropShadow_318_2717" result="effect5_dropShadow_318_2717"/>
<feBlend mode="normal" in="SourceGraphic" in2="effect5_dropShadow_318_2717" result="shape"/>
</filter>
<clipPath id="clip0_318_2717">
<rect x="4" width="191" height="31" rx="1.5" fill="white"/>
</clipPath>
<clipPath id="clip1_318_2717">
<rect width="183" height="25" fill="white" transform="translate(8 3)"/>
</clipPath>
<clipPath id="clip2_318_2717">
<rect width="179" height="19" fill="white" transform="translate(10 6)"/>
</clipPath>
</defs>
</svg>
