<svg width="30" height="33" viewBox="0 0 30 33" fill="none" xmlns="http://www.w3.org/2000/svg">
<path d="M7.16906 27.477C6.13969 27.477 5.26385 27.0804 4.54156 26.2872C3.81948 25.4941 3.45844 24.531 3.45844 23.398H1.25V7.79178C1.25 7.17303 1.45656 6.63632 1.86969 6.18166C2.28302 5.72722 2.77094 5.5 3.33344 5.5H21.2291V11.1605H24.6666L28.75 17.1418V23.398H26.4375C26.4375 24.531 26.0772 25.4941 25.3566 26.2872C24.6359 27.0804 23.7609 27.477 22.7316 27.477C21.7022 27.477 20.8264 27.0804 20.1041 26.2872C19.382 25.4941 19.0209 24.531 19.0209 23.398H10.875C10.875 24.5285 10.5147 25.491 9.79406 26.2855C9.07344 27.0798 8.19844 27.477 7.16906 27.477ZM7.16656 25.1855C7.61802 25.1855 8.00177 25.0117 8.31781 24.6641C8.63365 24.3164 8.79156 23.8944 8.79156 23.398C8.79156 22.9014 8.63365 22.4793 8.31781 22.1317C8.00177 21.7842 7.61802 21.6105 7.16656 21.6105C6.71531 21.6105 6.33167 21.7842 6.01562 22.1317C5.69958 22.4793 5.54156 22.9014 5.54156 23.398C5.54156 23.8944 5.69958 24.3164 6.01562 24.6641C6.33167 25.0117 6.71531 25.1855 7.16656 25.1855ZM3.33344 21.1063H4.125C4.47917 20.5563 4.91344 20.1171 5.42781 19.7887C5.9424 19.46 6.51531 19.2957 7.14656 19.2957C7.77802 19.2957 8.35417 19.4638 8.875 19.8C9.39583 20.1362 9.83333 20.5716 10.1875 21.1063H19.1459V7.79178H3.33344V21.1063ZM22.7291 25.1855C23.1805 25.1855 23.5643 25.0117 23.8803 24.6641C24.1961 24.3164 24.3541 23.8944 24.3541 23.398C24.3541 22.9014 24.1961 22.4793 23.8803 22.1317C23.5643 21.7842 23.1805 21.6105 22.7291 21.6105C22.2778 21.6105 21.8942 21.7842 21.5781 22.1317C21.2621 22.4793 21.1041 22.9014 21.1041 23.398C21.1041 23.8944 21.2621 24.3164 21.5781 24.6641C21.8942 25.0117 22.2778 25.1855 22.7291 25.1855ZM21.2291 18.2188H26.875L23.625 13.452H21.2291V18.2188Z" fill="#FFFFF0"/>
</svg>
