<svg width="18" height="15" viewBox="0 0 18 15" fill="none" xmlns="http://www.w3.org/2000/svg">
<path d="M1.14011 1.78596C3.92454 5.75814 5.70263 10.2998 8.39479 14.2734C8.67734 14.6383 9.37294 14.8582 9.68941 14.4379C12.7647 10.4207 14.815 5.77335 16.7261 1.08203C16.9489 0.57086 16.2958 0.119468 15.9793 0.539787C14.1722 0.0601926 11.3875 1.99587 9.8845 3.26544C7.41281 1.59615 4.90577 0.619738 1.90491 0.527954C1.25904 0.537851 0.809196 1.28333 1.14011 1.78596ZM10.5095 4.87107C11.7825 3.65123 13.483 3.20938 14.9478 2.44812C13.2479 5.89004 11.5011 9.28653 9.19645 12.4148C7.11482 9.12399 5.53707 5.59459 3.50085 2.25694C5.67561 2.63851 7.62904 3.62353 9.54137 4.93228C9.82393 5.29713 10.237 5.15224 10.5095 4.87107Z" fill="#FFFFF0"/>
<path d="M9.10297 12.7027L7.09471 8.65907L5.11973 5.20731L3.7698 2.31422L6.79531 3.33177L8.63722 4.41583L9.26228 4.97449L10.4459 4.90797L11.0044 4.28279L12.1547 3.62435L13.8968 2.93264L15.0471 2.2742L14.5219 3.4913L12.3543 7.17588L11.8291 8.39298L9.66149 12.0776L9.10297 12.7027Z" fill="#FE5829"/>
<path d="M1.14011 1.78596C3.92454 5.75814 5.70263 10.2998 8.39479 14.2734C8.67734 14.6383 9.37294 14.8582 9.68941 14.4379C12.7647 10.4207 14.815 5.77335 16.7261 1.08203C16.9489 0.57086 16.2958 0.119468 15.9793 0.539787C14.1722 0.0601926 11.3875 1.99587 9.8845 3.26544C7.41281 1.59615 4.90577 0.619738 1.90491 0.527954C1.25904 0.537851 0.809196 1.28333 1.14011 1.78596ZM10.5095 4.87107C11.7825 3.65123 13.483 3.20938 14.9478 2.44812C13.2479 5.89004 11.5011 9.28653 9.19645 12.4148C7.11482 9.12399 5.53707 5.59459 3.50085 2.25694C5.67561 2.63851 7.62904 3.62353 9.54137 4.93228C9.82393 5.29713 10.237 5.15224 10.5095 4.87107Z" stroke="black" stroke-width="0.5"/>
<path d="M9.10297 12.7027L7.09471 8.65907L5.11973 5.20731L3.7698 2.31422L6.79531 3.33177L8.63722 4.41583L9.26228 4.97449L10.4459 4.90797L11.0044 4.28279L12.1547 3.62435L13.8968 2.93264L15.0471 2.2742L14.5219 3.4913L12.3543 7.17588L11.8291 8.39298L9.66149 12.0776L9.10297 12.7027Z" stroke="black" stroke-width="0.5"/>
</svg>
