<svg width="25" height="25" viewBox="0 0 25 25" fill="none" xmlns="http://www.w3.org/2000/svg">
<path d="M8.83677 22.2656C6.8576 21.5248 5.23729 20.2777 3.97583 18.5242C2.7142 16.7707 2.08338 14.7655 2.08338 12.5086C2.08338 11.9878 2.11663 11.4699 2.18312 10.9549C2.24979 10.4398 2.36411 9.93342 2.52609 9.43567L1.01567 10.3125L0.147705 8.82812L4.80916 6.13723L7.50005 10.7727L5.98963 11.6406L4.51385 9.10598C4.28816 9.64418 4.11602 10.1968 3.99744 10.7638C3.87887 11.331 3.81958 11.9126 3.81958 12.5086C3.81958 14.4126 4.36932 16.1126 5.4688 17.6086C6.56828 19.1044 7.98607 20.1475 9.72218 20.7378L8.83677 22.2656ZM16.493 9.02786V7.29166H19.4357C18.614 6.19791 17.5955 5.34574 16.3803 4.73515C15.165 4.12473 13.8716 3.81953 12.5 3.81953C11.3832 3.81953 10.3387 4.01336 9.36646 4.40104C8.39423 4.78871 7.52323 5.3269 6.75343 6.01562L5.86802 4.47057C6.78243 3.72404 7.801 3.13949 8.92375 2.71692C10.0463 2.29453 11.2384 2.08333 12.5 2.08333C13.9757 2.08333 15.3704 2.37413 16.6842 2.95572C17.9977 3.53732 19.1493 4.36631 20.1389 5.4427V3.64583H21.875V9.02786H16.493ZM15.4862 25L10.8248 22.3091L13.5157 17.6737L15 18.5417L13.4982 21.1458C15.6857 20.897 17.513 19.9509 18.98 18.3073C20.447 16.6637 21.1805 14.7279 21.1805 12.5C21.1805 12.1932 21.1646 11.8996 21.1329 11.619C21.1011 11.3383 21.0505 11.0532 20.981 10.7638H22.7605C22.8125 11.0532 22.8516 11.3411 22.8777 11.6276C22.9037 11.9141 22.9167 12.2049 22.9167 12.5C22.9167 14.9363 22.1658 17.0992 20.6641 18.9888C19.1624 20.8782 17.2338 22.0978 14.8784 22.6476L16.3542 23.5156L15.4862 25Z" fill="#FFFFF0"/>
</svg>
