<svg width="15" height="10" viewBox="0 0 15 10" fill="none" xmlns="http://www.w3.org/2000/svg">
<path d="M7.5 8C8.28125 8 8.94531 7.72656 9.49219 7.17969C10.0391 6.63281 10.3125 5.96875 10.3125 5.1875C10.3125 4.40625 10.0391 3.74219 9.49219 3.19531C8.94531 2.64844 8.28125 2.375 7.5 2.375C6.71875 2.375 6.05469 2.64844 5.50781 3.19531C4.96094 3.74219 4.6875 4.40625 4.6875 5.1875C4.6875 5.96875 4.96094 6.63281 5.50781 7.17969C6.05469 7.72656 6.71875 8 7.5 8ZM7.5 6.875C7.03125 6.875 6.63281 6.71094 6.30469 6.38281C5.97656 6.05469 5.8125 5.65625 5.8125 5.1875C5.8125 4.71875 5.97656 4.32031 6.30469 3.99219C6.63281 3.66406 7.03125 3.5 7.5 3.5C7.96875 3.5 8.36719 3.66406 8.69531 3.99219C9.02344 4.32031 9.1875 4.71875 9.1875 5.1875C9.1875 5.65625 9.02344 6.05469 8.69531 6.38281C8.36719 6.71094 7.96875 6.875 7.5 6.875ZM7.5 9.875C5.97917 9.875 4.59375 9.45052 3.34375 8.60156C2.09375 7.7526 1.1875 6.61458 0.625 5.1875C1.1875 3.76042 2.09375 2.6224 3.34375 1.77344C4.59375 0.924479 5.97917 0.5 7.5 0.5C9.02083 0.5 10.4062 0.924479 11.6562 1.77344C12.9062 2.6224 13.8125 3.76042 14.375 5.1875C13.8125 6.61458 12.9062 7.7526 11.6562 8.60156C10.4062 9.45052 9.02083 9.875 7.5 9.875ZM7.5 8.625C8.67708 8.625 9.75781 8.3151 10.7422 7.69531C11.7266 7.07552 12.4792 6.23958 13 5.1875C12.4792 4.13542 11.7266 3.29948 10.7422 2.67969C9.75781 2.0599 8.67708 1.75 7.5 1.75C6.32292 1.75 5.24219 2.0599 4.25781 2.67969C3.27344 3.29948 2.52083 4.13542 2 5.1875C2.52083 6.23958 3.27344 7.07552 4.25781 7.69531C5.24219 8.3151 6.32292 8.625 7.5 8.625Z" fill="black"/>
</svg>
