<svg width="15" height="13" viewBox="0 0 15 13" fill="none" xmlns="http://www.w3.org/2000/svg">
<path d="M7.47444 12.749L6.68114 12.08C5.50056 11.0705 4.52458 10.1995 3.7532 9.46731C2.98171 8.73507 2.36745 8.07961 1.91043 7.50091C1.45329 6.92222 1.13316 6.39576 0.950031 5.92155C0.766791 5.44723 0.675171 4.96585 0.675171 4.47741C0.675171 3.50647 1.02267 2.69566 1.71767 2.04497C2.41278 1.39429 3.27402 1.06894 4.30139 1.06894C4.92851 1.06894 5.51404 1.20342 6.05798 1.47238C6.60192 1.74145 7.07408 2.12727 7.47444 2.62983C7.92013 2.10603 8.40928 1.71491 8.94189 1.45646C9.4745 1.19811 10.043 1.06894 10.6475 1.06894C11.6749 1.06894 12.5361 1.39429 13.2312 2.04497C13.9262 2.69566 14.2737 3.50647 14.2737 4.47741C14.2737 4.96585 14.1821 5.44723 13.9989 5.92155C13.8157 6.39576 13.4956 6.92222 13.0385 7.50091C12.5814 8.07961 11.9672 8.73507 11.1957 9.46731C10.4243 10.1995 9.44833 11.0705 8.26775 12.08L7.47444 12.749ZM7.47444 11.3369C8.60187 10.3741 9.52969 9.54854 10.2579 8.86016C10.986 8.17167 11.5635 7.56993 11.9903 7.05494C12.4171 6.53996 12.7155 6.08114 12.8855 5.6785C13.0555 5.27585 13.1404 4.87602 13.1404 4.479C13.1404 3.79837 12.9063 3.23682 12.4379 2.79436C11.9696 2.352 11.3736 2.13082 10.65 2.13082C10.0832 2.13082 9.55859 2.28919 9.07618 2.60594C8.59388 2.92268 8.22242 3.35538 7.96178 3.90402H6.97588C6.72273 3.36249 6.355 2.93155 5.8727 2.61119C5.39029 2.29095 4.86567 2.13082 4.29884 2.13082C3.57529 2.13082 2.97933 2.352 2.51097 2.79436C2.04262 3.23682 1.80844 3.79896 1.80844 4.48075C1.80844 4.87852 1.89343 5.27999 2.06341 5.68519C2.23339 6.09049 2.53177 6.55238 2.95854 7.07087C3.38542 7.58947 3.96528 8.19121 4.69813 8.87609C5.43086 9.56096 6.3563 10.3812 7.47444 11.3369Z" fill="#FE5829"/>
<path d="M7.22262 12.5915L6.48807 11.9224C5.39495 10.9127 4.49126 10.0416 3.77702 9.3093C3.06268 8.57695 2.49392 7.92139 2.07075 7.3426C1.64748 6.76382 1.35106 6.23729 1.1815 5.763C1.01183 5.28861 0.926996 4.80716 0.926996 4.31865C0.926996 3.34757 1.24875 2.53663 1.89227 1.88585C2.53589 1.23506 3.33334 0.909668 4.28461 0.909668C4.86527 0.909668 5.40743 1.04417 5.91108 1.31317C6.41473 1.58228 6.85191 1.96815 7.22262 2.47079C7.63529 1.94691 8.08821 1.55573 8.58137 1.29724C9.07453 1.03886 9.60094 0.909668 10.1606 0.909668C11.1119 0.909668 11.9093 1.23506 12.553 1.88585C13.1965 2.53663 13.5182 3.34757 13.5182 4.31865C13.5182 4.80716 13.4334 5.28861 13.2637 5.763C13.0942 6.23729 12.7978 6.76382 12.3745 7.3426C11.9513 7.92139 11.3826 8.57695 10.6682 9.3093C9.95397 10.0416 9.05029 10.9127 7.95716 11.9224L7.22262 12.5915ZM7.22262 11.1791C8.26654 10.2162 9.12563 9.39054 9.79989 8.70205C10.474 8.01346 11.0087 7.41163 11.404 6.89657C11.7992 6.3815 12.0754 5.92262 12.2328 5.51991C12.3902 5.11721 12.4689 4.71732 12.4689 4.32024C12.4689 3.63951 12.2521 3.07787 11.8184 2.63534C11.3848 2.19292 10.8329 1.97171 10.163 1.97171C9.63814 1.97171 9.15238 2.1301 8.70571 2.44689C8.25914 2.76369 7.91519 3.19645 7.67386 3.74517H6.76099C6.52658 3.20356 6.18609 2.77255 5.73953 2.45215C5.29285 2.13186 4.80709 1.97171 4.28225 1.97171C3.61229 1.97171 3.06048 2.19292 2.62681 2.63534C2.19315 3.07787 1.97632 3.64009 1.97632 4.32199C1.97632 4.71981 2.05501 5.12135 2.2124 5.5266C2.36979 5.93197 2.64607 6.39393 3.04122 6.9125C3.43648 7.43117 3.97339 8.033 4.65196 8.71798C5.33042 9.40296 6.1873 10.2233 7.22262 11.1791Z" fill="black"/>
<path d="M7.22262 12.5915L6.48807 11.9224C5.39495 10.9127 4.49126 10.0416 3.77702 9.3093C3.06268 8.57695 2.49392 7.92139 2.07075 7.3426C1.64748 6.76382 1.35106 6.23729 1.1815 5.763C1.01183 5.28861 0.926996 4.80716 0.926996 4.31865C0.926996 3.34757 1.24875 2.53663 1.89227 1.88585C2.53589 1.23506 3.33334 0.909668 4.28461 0.909668C4.86527 0.909668 5.40743 1.04417 5.91108 1.31317C6.41473 1.58228 6.85191 1.96815 7.22262 2.47079C7.63529 1.94691 8.08821 1.55573 8.58137 1.29724C9.07453 1.03886 9.60094 0.909668 10.1606 0.909668C11.1119 0.909668 11.9093 1.23506 12.553 1.88585C13.1965 2.53663 13.5182 3.34757 13.5182 4.31865C13.5182 4.80716 13.4334 5.28861 13.2637 5.763C13.0942 6.23729 12.7978 6.76382 12.3745 7.3426C11.9513 7.92139 11.3826 8.57695 10.6682 9.3093C9.95397 10.0416 9.05029 10.9127 7.95716 11.9224L7.22262 12.5915ZM7.22262 11.1791C8.26654 10.2162 9.12563 9.39054 9.79989 8.70205C10.474 8.01346 11.0087 7.41163 11.404 6.89657C11.7992 6.3815 12.0754 5.92262 12.2328 5.51991C12.3902 5.11721 12.4689 4.71732 12.4689 4.32024C12.4689 3.63951 12.2521 3.07787 11.8184 2.63534C11.3848 2.19292 10.8329 1.97171 10.163 1.97171C9.63814 1.97171 9.15238 2.1301 8.70571 2.44689C8.25914 2.76369 7.91519 3.19645 7.67386 3.74517H6.76099C6.52658 3.20356 6.18609 2.77255 5.73953 2.45215C5.29285 2.13186 4.80709 1.97171 4.28225 1.97171C3.61229 1.97171 3.06048 2.19292 2.62681 2.63534C2.19315 3.07787 1.97632 3.64009 1.97632 4.32199C1.97632 4.71981 2.05501 5.12135 2.2124 5.5266C2.36979 5.93197 2.64607 6.39393 3.04122 6.9125C3.43648 7.43117 3.97339 8.033 4.65196 8.71798C5.33042 9.40296 6.1873 10.2233 7.22262 11.1791Z" fill="black"/>
</svg>
