<svg width="14" height="12" viewBox="0 0 14 12" fill="none" xmlns="http://www.w3.org/2000/svg">
<path d="M0.407608 2.17725C2.26687 5.27329 3.92844 8.42646 6.48386 11.0204C6.86497 11.381 7.5691 11.1401 7.84042 10.7042C9.68384 7.68757 11.7288 4.74456 13.4265 1.6194C13.5343 1.4189 13.5003 1.24052 13.4105 1.09703C13.7417 0.756752 13.2969 0.169843 12.8799 0.497291C11.7407 1.40957 10.4181 1.90426 9.12535 2.44679C7.77676 3.02425 7.88848 2.95436 6.7055 2.42998C5.40673 1.84493 3.44774 1.07397 1.79603 1.04247C1.12783 0.595343 -0.0711489 1.41196 0.407608 2.17725ZM7.2243 4.50121C7.4557 4.62265 7.73899 4.57853 7.96242 4.43875C9.04964 3.69215 10.3424 3.14949 11.4895 2.49843C9.96124 4.6524 8.40721 6.88903 6.99463 9.10372C5.28703 7.24379 4.05225 5.02152 2.76169 2.83415C2.93326 2.85992 3.13465 2.93358 3.30631 2.95929C4.73866 3.26112 6.06327 3.76345 7.2243 4.50121Z" fill="#FE5829"/>
<path d="M1.39027 3.77792C2.93966 6.35796 4.32431 8.98559 6.45382 11.1472C6.77141 11.4477 7.35818 11.247 7.58429 10.8837C9.12047 8.36986 10.8246 5.91735 12.2394 3.31304C12.3292 3.14596 12.3008 2.99731 12.226 2.87774C12.502 2.59417 12.1314 2.10508 11.7838 2.37796C10.8346 3.13819 9.73234 3.55043 8.65506 4.00254C7.53124 4.48376 7.62433 4.42552 6.63852 3.98853C5.55621 3.50099 3.92372 2.85853 2.54729 2.83227C1.99046 2.45967 0.991311 3.14018 1.39027 3.77792ZM7.07085 5.71456C7.26369 5.81575 7.49976 5.77899 7.68595 5.6625C8.59197 5.04034 9.66928 4.58813 10.6252 4.04557C9.35164 5.84054 8.05661 7.70441 6.87946 9.54998C5.45646 8.00004 4.42747 6.14815 3.35201 4.32534C3.49498 4.34681 3.66281 4.4082 3.80586 4.42962C4.99948 4.68115 6.10333 5.09975 7.07085 5.71456Z" fill="black"/>
</svg>
