<svg width="45" height="45" viewBox="0 0 45 45" fill="none" xmlns="http://www.w3.org/2000/svg">
<rect width="45" height="45" fill="black"/>
<path d="M17 16L16.5 19.5L13.5 19H11.5L10 19.5L9.00003 20L8.50003 20.5L8.00003 21.5V22.5V25L8 26L9.00003 27L10 28L11 28.5H12H13.5L11.5 22H18V31L16 31.5L14 32H11.5H10L8.00003 31.5L6.00003 30L4.24121 28L3.5 26.5L3 25V22.5L3.5 21L4.24121 19.5L5 18.5L6.5 17L8.00003 16L10 15.5H12H14L17 16Z" fill="white"/>
<path d="M20.5 15.5V31.5H25V15.5H20.5Z" fill="white"/>
<path d="M41 16L40.5 19.5L39 19H37.5H36H35L34 19.5L33 20.5L32.5 21L32 22V23V25L32.5 26L33 27L34.5 28L36 28.5H37.5L35.5 22H42V31L40.5 31.5L38.5 32H36H34L31.5 31L29.5 29.5L28 28L27.5 27L27 25V22.5L27.5 21L28 19.5L29 18.5L30.5 17L32.5 16L34.5 15.5H36.5H38L41 16Z" fill="white"/>
<path d="M22.5 12L20.5 15.5H25L22.5 12Z" fill="white"/>
<path d="M23 12H27L25.5 15L23 12Z" fill="#F30000"/>
<path d="M20.5 15.5L22.5 12L25 15.5M20.5 15.5V31.5H25V15.5M20.5 15.5H25M17 16L16.5 19.5L13.5 19H11.5L10 19.5L9.00003 20L8.50003 20.5L8.00003 21.5V22.5V25L8 26L9.00003 27L10 28L11 28.5H12H13.5L11.5 22H18V31L16 31.5L14 32H11.5H10L8.00003 31.5L6.00003 30L4.24121 28L3.5 26.5L3 25V22.5L3.5 21L4.24121 19.5L5 18.5L6.5 17L8.00003 16L10 15.5H12H14L17 16ZM23 12H27L25.5 15L23 12ZM41 16L40.5 19.5L39 19H37.5H36H35L34 19.5L33 20.5L32.5 21L32 22V23V25L32.5 26L33 27L34.5 28L36 28.5H37.5L35.5 22H42V31L40.5 31.5L38.5 32H36H34L31.5 31L29.5 29.5L28 28L27.5 27L27 25V22.5L27.5 21L28 19.5L29 18.5L30.5 17L32.5 16L34.5 15.5H36.5H38L41 16Z" stroke="black" stroke-width="0.2"/>
</svg>
