<svg width="100" height="100" viewBox="0 0 100 100" fill="none" xmlns="http://www.w3.org/2000/svg">
<g filter="url(#filter0_iii_16_322)">
<ellipse cx="50" cy="50" rx="50" ry="50" fill="#FE5829"/>
</g>
<path d="M99.5 50C99.5 77.3381 77.3381 99.5 50 99.5C22.6619 99.5 0.5 77.3381 0.5 50C0.5 22.6619 22.6619 0.5 50 0.5C77.3381 0.5 99.5 22.6619 99.5 50Z" stroke="black"/>
<g filter="url(#filter1_dddd_16_322)">
<path d="M28 14.1667L29.1667 13.6667L31.8333 13L35.3333 10.8333L39.8333 8.16667L44.8333 7H49.3333L54.5 9H60.5L62.8333 10.8333L64.6667 14.1667L67 20.8333L69 33.8333L70.5 45.3333L72.1667 47.6667L71.8333 49V54.1667V59.1667L69.5 63.1667L62.8333 57.8333L69.5 64.5V76.6667L69 77.3333V83.6667L65.3333 80.1667L63.8333 74.1667L62.8333 68.1667L58.1667 62.5L51.5 55.8333L46.1667 55.5L40.3333 57L35.5 57.5L35 56.5L39.6667 55.8333L43 55L37.6667 55.5L33.8333 55L32.3333 53.3333L34.5 50.1667L32.3333 52V49.6667L33.3333 47.6667L41.8333 44.1667L33.3333 46.6667L32.5 44.5L33.8333 42.5L36.5 41.1667L39.8333 40.8333L45.1667 41.8333L41.8333 40.3333L39 39.5L38.3333 37.5H35.5L33.3333 36.3333L33 35.5L33.3333 34.5L33.8333 33.8333L33 33L32.3333 32.1667L33 31.6667L31.8333 30.5L32.3333 29.6667L32.5 28.5L31.1667 28L30.5 27L31.8333 25.8333L33 24.1667L30.5 18.3333L28 14.1667Z" fill="#FFFFF0"/>
<path d="M28 14.1667L29.1667 13.6667L31.8333 13L35.3333 10.8333L39.8333 8.16667L44.8333 7H49.3333L54.5 9H60.5L62.8333 10.8333L64.6667 14.1667L67 20.8333L69 33.8333L70.5 45.3333L72.1667 47.6667L71.8333 49V54.1667V59.1667L69.5 63.1667L62.8333 57.8333L69.5 64.5V76.6667L69 77.3333V83.6667L65.3333 80.1667L63.8333 74.1667L62.8333 68.1667L58.1667 62.5L51.5 55.8333L46.1667 55.5L40.3333 57L35.5 57.5L35 56.5L39.6667 55.8333L43 55L37.6667 55.5L33.8333 55L32.3333 53.3333L34.5 50.1667L32.3333 52V49.6667L33.3333 47.6667L41.8333 44.1667L33.3333 46.6667L32.5 44.5L33.8333 42.5L36.5 41.1667L39.8333 40.8333L45.1667 41.8333L41.8333 40.3333L39 39.5L38.3333 37.5H35.5L33.3333 36.3333L33 35.5L33.3333 34.5L33.8333 33.8333L33 33L32.3333 32.1667L33 31.6667L31.8333 30.5L32.3333 29.6667L32.5 28.5L31.1667 28L30.5 27L31.8333 25.8333L33 24.1667L30.5 18.3333L28 14.1667Z" stroke="#FFFFF0"/>
</g>
<g filter="url(#filter2_d_16_322)">
<path d="M50.4881 57.0184L37.9523 60.8858L37.4881 62.2394L50.0238 57.9853L50.4881 57.0184Z" fill="black"/>
<path fill-rule="evenodd" clip-rule="evenodd" d="M31.8392 42L18.2202 49.477L16.3631 51.6685L15.6666 53.7956V55.7937L17.7559 73.326L18.994 77.5801L19.6131 78.6759L21.3154 80.2873L23.4821 81.1252L27.0416 80.674L29.0535 80.2873L30.5238 79.256L32.2262 76.6133L32.6131 76.4199L33.2321 76.6133L33.9285 77.4512L34.5476 78.6759L35.7857 79.7716L37.2559 80.2873H38.8809L40.9702 79.7716L43.369 78.8692L47.3154 76.6133H48.1666L49.3273 76.9355L53.6607 78.3536L56.1369 78.6759L57.375 78.1602L58.6131 76.6133L59 75.0663L58.6131 72.2302L57.0654 69.3941L54.2797 66.4936L51.1845 64.3665L48.1666 63.1418L46.6964 62.8195H45.0714L44.5297 63.1418L44.2976 63.9153V65.3333V66.6869L43.369 68.6206L42.9047 69.8453L42.4404 71.5856V73.8416V75.0663L40.9702 75.7753L38.8809 76.2265H35.7857L33.9285 75.5175L33.5416 74.4217V73.8416L33.9285 73.1971L33.5416 72.6169L32.6131 72.9392L32.2262 73.8416L31.375 75.0663L30.5238 75.7753L28.6666 76.6133L27.0416 76.9355L24.875 77.1934H23.4821L21.625 76.6133L20.4642 75.7753L19.9226 74.6151L18.994 71.3923L18.2976 67.0092L17.5238 61.0792L16.9047 55.7937V53.4733L17.0595 52.6998L17.9881 51.8619L20 50.7017L31.5297 44.7716L31.6845 44.5138L32.1488 42H31.8392ZM46.9285 67.8471L47.5476 67.7827L48.244 67.9761L49.0178 68.6206L49.6369 69.9742V71.5856L49.4047 72.1657L48.5535 72.7459L47.3928 73.1326H46L45.2262 72.9392L44.4523 72.6169L44.0654 72.2302L43.9107 71.779L44.2976 70.6832L45.2262 69.0718L46 68.3628L46.9285 67.8471ZM55.3631 72.2302L52.1131 69.8453V70.8766L51.1071 72.4236L49.6369 73.8416L50.4881 74.2284L53.8154 75.0663L57.0654 75.5819L56.9107 74.0994L55.3631 72.2302Z" fill="black"/>
<path d="M22.0119 86.6685L23.7142 83.639L27.3512 85.3794L29.0535 82.5433L32.6131 84.5414V84.9282L32.2262 86.1529L31.6071 87.2486L31.0654 87.7643L27.3512 85.9595L25.494 88.6667L24.3333 87.9576L22.0119 86.6685Z" fill="black"/>
<path d="M25.8035 67.3315L26.5 66.3646L27.2738 66.6869L27.9702 67.3315L28.6666 69.0074L29.1309 67.0092L29.75 66.1068H30.369L31.0654 66.6869L30.8333 67.4604L30.1369 67.0092L29.75 67.2026L29.4404 67.5893L28.8988 69.7164L28.6666 70.361L28.3571 70.4899L28.2023 69.7164L27.2738 67.9116L26.8869 68.105L26.2678 67.9116L25.8035 67.4604V67.3315Z" fill="black"/>
<path d="M50.4881 57.0184L37.9523 60.8858L37.4881 62.2394L50.0238 57.9853L50.4881 57.0184Z" stroke="black"/>
<path fill-rule="evenodd" clip-rule="evenodd" d="M31.8392 42L18.2202 49.477L16.3631 51.6685L15.6666 53.7956V55.7937L17.7559 73.326L18.994 77.5801L19.6131 78.6759L21.3154 80.2873L23.4821 81.1252L27.0416 80.674L29.0535 80.2873L30.5238 79.256L32.2262 76.6133L32.6131 76.4199L33.2321 76.6133L33.9285 77.4512L34.5476 78.6759L35.7857 79.7716L37.2559 80.2873H38.8809L40.9702 79.7716L43.369 78.8692L47.3154 76.6133H48.1666L49.3273 76.9355L53.6607 78.3536L56.1369 78.6759L57.375 78.1602L58.6131 76.6133L59 75.0663L58.6131 72.2302L57.0654 69.3941L54.2797 66.4936L51.1845 64.3665L48.1666 63.1418L46.6964 62.8195H45.0714L44.5297 63.1418L44.2976 63.9153V65.3333V66.6869L43.369 68.6206L42.9047 69.8453L42.4404 71.5856V73.8416V75.0663L40.9702 75.7753L38.8809 76.2265H35.7857L33.9285 75.5175L33.5416 74.4217V73.8416L33.9285 73.1971L33.5416 72.6169L32.6131 72.9392L32.2262 73.8416L31.375 75.0663L30.5238 75.7753L28.6666 76.6133L27.0416 76.9355L24.875 77.1934H23.4821L21.625 76.6133L20.4642 75.7753L19.9226 74.6151L18.994 71.3923L18.2976 67.0092L17.5238 61.0792L16.9047 55.7937V53.4733L17.0595 52.6998L17.9881 51.8619L20 50.7017L31.5297 44.7716L31.6845 44.5138L32.1488 42H31.8392ZM46.9285 67.8471L47.5476 67.7827L48.244 67.9761L49.0178 68.6206L49.6369 69.9742V71.5856L49.4047 72.1657L48.5535 72.7459L47.3928 73.1326H46L45.2262 72.9392L44.4523 72.6169L44.0654 72.2302L43.9107 71.779L44.2976 70.6832L45.2262 69.0718L46 68.3628L46.9285 67.8471ZM55.3631 72.2302L52.1131 69.8453V70.8766L51.1071 72.4236L49.6369 73.8416L50.4881 74.2284L53.8154 75.0663L57.0654 75.5819L56.9107 74.0994L55.3631 72.2302Z" stroke="black"/>
<path d="M22.0119 86.6685L23.7142 83.639L27.3512 85.3794L29.0535 82.5433L32.6131 84.5414V84.9282L32.2262 86.1529L31.6071 87.2486L31.0654 87.7643L27.3512 85.9595L25.494 88.6667L24.3333 87.9576L22.0119 86.6685Z" stroke="black"/>
<path d="M25.8035 67.3315L26.5 66.3646L27.2738 66.6869L27.9702 67.3315L28.6666 69.0074L29.1309 67.0092L29.75 66.1068H30.369L31.0654 66.6869L30.8333 67.4604L30.1369 67.0092L29.75 67.2026L29.4404 67.5893L28.8988 69.7164L28.6666 70.361L28.3571 70.4899L28.2023 69.7164L27.2738 67.9116L26.8869 68.105L26.2678 67.9116L25.8035 67.4604V67.3315Z" stroke="black"/>
</g>
<defs>
<filter id="filter0_iii_16_322" x="0" y="0" width="100" height="104" filterUnits="userSpaceOnUse" color-interpolation-filters="sRGB">
<feFlood flood-opacity="0" result="BackgroundImageFix"/>
<feBlend mode="normal" in="SourceGraphic" in2="BackgroundImageFix" result="shape"/>
<feColorMatrix in="SourceAlpha" type="matrix" values="0 0 0 0 0 0 0 0 0 0 0 0 0 0 0 0 0 0 127 0" result="hardAlpha"/>
<feOffset dy="4"/>
<feGaussianBlur stdDeviation="2"/>
<feComposite in2="hardAlpha" operator="arithmetic" k2="-1" k3="1"/>
<feColorMatrix type="matrix" values="0 0 0 0 0 0 0 0 0 0 0 0 0 0 0 0 0 0 0.25 0"/>
<feBlend mode="normal" in2="shape" result="effect1_innerShadow_16_322"/>
<feColorMatrix in="SourceAlpha" type="matrix" values="0 0 0 0 0 0 0 0 0 0 0 0 0 0 0 0 0 0 127 0" result="hardAlpha"/>
<feOffset dy="4"/>
<feGaussianBlur stdDeviation="2"/>
<feComposite in2="hardAlpha" operator="arithmetic" k2="-1" k3="1"/>
<feColorMatrix type="matrix" values="0 0 0 0 0 0 0 0 0 0 0 0 0 0 0 0 0 0 0.25 0"/>
<feBlend mode="normal" in2="effect1_innerShadow_16_322" result="effect2_innerShadow_16_322"/>
<feColorMatrix in="SourceAlpha" type="matrix" values="0 0 0 0 0 0 0 0 0 0 0 0 0 0 0 0 0 0 127 0" result="hardAlpha"/>
<feOffset dy="4"/>
<feGaussianBlur stdDeviation="2"/>
<feComposite in2="hardAlpha" operator="arithmetic" k2="-1" k3="1"/>
<feColorMatrix type="matrix" values="0 0 0 0 0 0 0 0 0 0 0 0 0 0 0 0 0 0 0.25 0"/>
<feBlend mode="normal" in2="effect2_innerShadow_16_322" result="effect3_innerShadow_16_322"/>
</filter>
<filter id="filter1_dddd_16_322" x="23.2765" y="6.5" width="53.4313" height="86.3352" filterUnits="userSpaceOnUse" color-interpolation-filters="sRGB">
<feFlood flood-opacity="0" result="BackgroundImageFix"/>
<feColorMatrix in="SourceAlpha" type="matrix" values="0 0 0 0 0 0 0 0 0 0 0 0 0 0 0 0 0 0 127 0" result="hardAlpha"/>
<feOffset dy="4"/>
<feGaussianBlur stdDeviation="2"/>
<feComposite in2="hardAlpha" operator="out"/>
<feColorMatrix type="matrix" values="0 0 0 0 0 0 0 0 0 0 0 0 0 0 0 0 0 0 0.25 0"/>
<feBlend mode="normal" in2="BackgroundImageFix" result="effect1_dropShadow_16_322"/>
<feColorMatrix in="SourceAlpha" type="matrix" values="0 0 0 0 0 0 0 0 0 0 0 0 0 0 0 0 0 0 127 0" result="hardAlpha"/>
<feOffset dy="4"/>
<feGaussianBlur stdDeviation="2"/>
<feComposite in2="hardAlpha" operator="out"/>
<feColorMatrix type="matrix" values="0 0 0 0 0 0 0 0 0 0 0 0 0 0 0 0 0 0 0.25 0"/>
<feBlend mode="normal" in2="effect1_dropShadow_16_322" result="effect2_dropShadow_16_322"/>
<feColorMatrix in="SourceAlpha" type="matrix" values="0 0 0 0 0 0 0 0 0 0 0 0 0 0 0 0 0 0 127 0" result="hardAlpha"/>
<feOffset dy="4"/>
<feGaussianBlur stdDeviation="2"/>
<feComposite in2="hardAlpha" operator="out"/>
<feColorMatrix type="matrix" values="0 0 0 0 0 0 0 0 0 0 0 0 0 0 0 0 0 0 0.25 0"/>
<feBlend mode="normal" in2="effect2_dropShadow_16_322" result="effect3_dropShadow_16_322"/>
<feColorMatrix in="SourceAlpha" type="matrix" values="0 0 0 0 0 0 0 0 0 0 0 0 0 0 0 0 0 0 127 0" result="hardAlpha"/>
<feOffset dy="4"/>
<feGaussianBlur stdDeviation="2"/>
<feComposite in2="hardAlpha" operator="out"/>
<feColorMatrix type="matrix" values="0 0 0 0 0 0 0 0 0 0 0 0 0 0 0 0 0 0 0.25 0"/>
<feBlend mode="normal" in2="effect3_dropShadow_16_322" result="effect4_dropShadow_16_322"/>
<feBlend mode="normal" in="SourceGraphic" in2="effect4_dropShadow_16_322" result="shape"/>
</filter>
<filter id="filter2_d_16_322" x="11.1666" y="41.5" width="52.3418" height="55.8406" filterUnits="userSpaceOnUse" color-interpolation-filters="sRGB">
<feFlood flood-opacity="0" result="BackgroundImageFix"/>
<feColorMatrix in="SourceAlpha" type="matrix" values="0 0 0 0 0 0 0 0 0 0 0 0 0 0 0 0 0 0 127 0" result="hardAlpha"/>
<feOffset dy="4"/>
<feGaussianBlur stdDeviation="2"/>
<feComposite in2="hardAlpha" operator="out"/>
<feColorMatrix type="matrix" values="0 0 0 0 0 0 0 0 0 0 0 0 0 0 0 0 0 0 0.25 0"/>
<feBlend mode="normal" in2="BackgroundImageFix" result="effect1_dropShadow_16_322"/>
<feBlend mode="normal" in="SourceGraphic" in2="effect1_dropShadow_16_322" result="shape"/>
</filter>
</defs>
</svg>
