<svg width="81" height="81" viewBox="0 0 81 81" fill="none" xmlns="http://www.w3.org/2000/svg">
<g filter="url(#filter0_ddd_505_2765)">
<path d="M61.25 23.5276L41 29.3287L40.25 31.3591L60.5 24.9779L61.25 23.5276Z" fill="#FE5829"/>
<path fill-rule="evenodd" clip-rule="evenodd" d="M31.125 1L9.125 12.2155L6.125 15.5028L5 18.6934V21.6906L8.375 47.9889L10.375 54.3702L11.375 56.0138L14.125 58.4309L17.625 59.6878L23.375 59.011L26.625 58.4309L29 56.884L31.75 52.9199L32.375 52.6298L33.375 52.9199L34.5 54.1768L35.5 56.0138L37.5 57.6575L39.875 58.4309H42.5L45.875 57.6575L49.75 56.3039L56.125 52.9199H57.5L59.375 53.4033L66.375 55.5304L70.375 56.0138L72.375 55.2403L74.375 52.9199L75 50.5994L74.375 46.3453L71.875 42.0912L67.375 37.7403L62.375 34.5497L57.5 32.7127L55.125 32.2293H52.5L51.625 32.7127L51.25 33.8729V36V38.0304L49.75 40.9309L49 42.768L48.25 45.3785V48.7624V50.5994L45.875 51.663L42.5 52.3398H37.5L34.5 51.2762L33.875 49.6326V48.7624L34.5 47.7956L33.875 46.9254L32.375 47.4088L31.75 48.7624L30.375 50.5994L29 51.663L26 52.9199L23.375 53.4033L19.875 53.7901H17.625L14.625 52.9199L12.75 51.663L11.875 49.9227L10.375 45.0884L9.25 38.5138L8 29.6188L7 21.6906V18.2099L7.25 17.0497L8.75 15.7928L12 14.0525L30.625 5.15746L30.875 4.77072L31.625 1H31.125ZM55.5 39.7707L56.5 39.674L57.625 39.9641L58.875 40.9309L59.875 42.9613V45.3785L59.5 46.2486L58.125 47.1188L56.25 47.6989H54L52.75 47.4088L51.5 46.9254L50.875 46.3453L50.625 45.6685L51.25 44.0249L52.75 41.6077L54 40.5442L55.5 39.7707ZM69.125 46.3453L63.875 42.768V44.3149L62.25 46.6354L59.875 48.7624L61.25 49.3425L66.625 50.5994L71.875 51.3729L71.625 49.1492L69.125 46.3453Z" fill="#FE5829"/>
<path d="M15.25 68.0028L18 63.4586L23.875 66.0691L26.625 61.8149L32.375 64.8122V65.3923L31.75 67.2293L30.75 68.8729L29.875 69.6464L23.875 66.9392L20.875 71L19 69.9365L15.25 68.0028Z" fill="#FE5829"/>
<path d="M21.375 38.9972L22.5 37.547L23.75 38.0304L24.875 38.9972L26 41.511L26.75 38.5138L27.75 37.1602H28.75L29.875 38.0304L29.5 39.1906L28.375 38.5138L27.75 38.8039L27.25 39.384L26.375 42.5746L26 43.5414L25.5 43.7348L25.25 42.5746L23.75 39.8674L23.125 40.1575L22.125 39.8674L21.375 39.1906V38.9972Z" fill="#FE5829"/>
<path d="M61.25 23.5276L41 29.3287L40.25 31.3591L60.5 24.9779L61.25 23.5276Z" stroke="black" stroke-width="2"/>
<path fill-rule="evenodd" clip-rule="evenodd" d="M31.125 1L9.125 12.2155L6.125 15.5028L5 18.6934V21.6906L8.375 47.9889L10.375 54.3702L11.375 56.0138L14.125 58.4309L17.625 59.6878L23.375 59.011L26.625 58.4309L29 56.884L31.75 52.9199L32.375 52.6298L33.375 52.9199L34.5 54.1768L35.5 56.0138L37.5 57.6575L39.875 58.4309H42.5L45.875 57.6575L49.75 56.3039L56.125 52.9199H57.5L59.375 53.4033L66.375 55.5304L70.375 56.0138L72.375 55.2403L74.375 52.9199L75 50.5994L74.375 46.3453L71.875 42.0912L67.375 37.7403L62.375 34.5497L57.5 32.7127L55.125 32.2293H52.5L51.625 32.7127L51.25 33.8729V36V38.0304L49.75 40.9309L49 42.768L48.25 45.3785V48.7624V50.5994L45.875 51.663L42.5 52.3398H37.5L34.5 51.2762L33.875 49.6326V48.7624L34.5 47.7956L33.875 46.9254L32.375 47.4088L31.75 48.7624L30.375 50.5994L29 51.663L26 52.9199L23.375 53.4033L19.875 53.7901H17.625L14.625 52.9199L12.75 51.663L11.875 49.9227L10.375 45.0884L9.25 38.5138L8 29.6188L7 21.6906V18.2099L7.25 17.0497L8.75 15.7928L12 14.0525L30.625 5.15746L30.875 4.77072L31.625 1H31.125ZM55.5 39.7707L56.5 39.674L57.625 39.9641L58.875 40.9309L59.875 42.9613V45.3785L59.5 46.2486L58.125 47.1188L56.25 47.6989H54L52.75 47.4088L51.5 46.9254L50.875 46.3453L50.625 45.6685L51.25 44.0249L52.75 41.6077L54 40.5442L55.5 39.7707ZM69.125 46.3453L63.875 42.768V44.3149L62.25 46.6354L59.875 48.7624L61.25 49.3425L66.625 50.5994L71.875 51.3729L71.625 49.1492L69.125 46.3453Z" stroke="black" stroke-width="2"/>
<path d="M15.25 68.0028L18 63.4586L23.875 66.0691L26.625 61.8149L32.375 64.8122V65.3923L31.75 67.2293L30.75 68.8729L29.875 69.6464L23.875 66.9392L20.875 71L19 69.9365L15.25 68.0028Z" stroke="black" stroke-width="2"/>
<path d="M21.375 38.9972L22.5 37.547L23.75 38.0304L24.875 38.9972L26 41.511L26.75 38.5138L27.75 37.1602H28.75L29.875 38.0304L29.5 39.1906L28.375 38.5138L27.75 38.8039L27.25 39.384L26.375 42.5746L26 43.5414L25.5 43.7348L25.25 42.5746L23.75 39.8674L23.125 40.1575L22.125 39.8674L21.375 39.1906V38.9972Z" stroke="black" stroke-width="2"/>
</g>
<defs>
<filter id="filter0_ddd_505_2765" x="0" y="0" width="80.0195" height="80.3071" filterUnits="userSpaceOnUse" color-interpolation-filters="sRGB">
<feFlood flood-opacity="0" result="BackgroundImageFix"/>
<feColorMatrix in="SourceAlpha" type="matrix" values="0 0 0 0 0 0 0 0 0 0 0 0 0 0 0 0 0 0 127 0" result="hardAlpha"/>
<feOffset dy="4"/>
<feGaussianBlur stdDeviation="2"/>
<feComposite in2="hardAlpha" operator="out"/>
<feColorMatrix type="matrix" values="0 0 0 0 0 0 0 0 0 0 0 0 0 0 0 0 0 0 0.25 0"/>
<feBlend mode="normal" in2="BackgroundImageFix" result="effect1_dropShadow_505_2765"/>
<feColorMatrix in="SourceAlpha" type="matrix" values="0 0 0 0 0 0 0 0 0 0 0 0 0 0 0 0 0 0 127 0" result="hardAlpha"/>
<feOffset dy="4"/>
<feGaussianBlur stdDeviation="2"/>
<feComposite in2="hardAlpha" operator="out"/>
<feColorMatrix type="matrix" values="0 0 0 0 0 0 0 0 0 0 0 0 0 0 0 0 0 0 0.25 0"/>
<feBlend mode="normal" in2="effect1_dropShadow_505_2765" result="effect2_dropShadow_505_2765"/>
<feColorMatrix in="SourceAlpha" type="matrix" values="0 0 0 0 0 0 0 0 0 0 0 0 0 0 0 0 0 0 127 0" result="hardAlpha"/>
<feOffset dy="4"/>
<feGaussianBlur stdDeviation="2"/>
<feComposite in2="hardAlpha" operator="out"/>
<feColorMatrix type="matrix" values="0 0 0 0 0 0 0 0 0 0 0 0 0 0 0 0 0 0 0.25 0"/>
<feBlend mode="normal" in2="effect2_dropShadow_505_2765" result="effect3_dropShadow_505_2765"/>
<feBlend mode="normal" in="SourceGraphic" in2="effect3_dropShadow_505_2765" result="shape"/>
</filter>
</defs>
</svg>
