<svg width="40" height="14" viewBox="0 0 40 14" fill="none" xmlns="http://www.w3.org/2000/svg">
<path d="M30 14C28.2333 14 26.6958 13.4292 25.3875 12.2875C24.0792 11.1458 23.3083 9.71667 23.075 8H20V6H23.075C23.3083 4.28333 24.0792 2.85417 25.3875 1.7125C26.6958 0.570833 28.2333 0 30 0C31.7667 0 33.3042 0.570833 34.6125 1.7125C35.9208 2.85417 36.6917 4.28333 36.925 6H40V8H36.925C36.6917 9.71667 35.9208 11.1458 34.6125 12.2875C33.3042 13.4292 31.7667 14 30 14ZM30 12C31.3833 12 32.5625 11.5125 33.5375 10.5375C34.5125 9.5625 35 8.38333 35 7C35 5.61667 34.5125 4.4375 33.5375 3.4625C32.5625 2.4875 31.3833 2 30 2C28.6167 2 27.4375 2.4875 26.4625 3.4625C25.4875 4.4375 25 5.61667 25 7C25 8.38333 25.4875 9.5625 26.4625 10.5375C27.4375 11.5125 28.6167 12 30 12ZM28 10.5H32C32.2833 10.5 32.5208 10.4042 32.7125 10.2125C32.9042 10.0208 33 9.78333 33 9.5V6.5C33 6.21667 32.9042 5.97917 32.7125 5.7875C32.5208 5.59583 32.2833 5.5 32 5.5V4.6C32 4.01667 31.8083 3.52083 31.425 3.1125C31.0417 2.70417 30.5667 2.5 30 2.5C29.45 2.5 28.9792 2.69583 28.5875 3.0875C28.1958 3.47917 28 3.95 28 4.5V5.5C27.7167 5.5 27.4792 5.59583 27.2875 5.7875C27.0958 5.97917 27 6.21667 27 6.5V9.5C27 9.78333 27.0958 10.0208 27.2875 10.2125C27.4792 10.4042 27.7167 10.5 28 10.5ZM30 8.75C29.7833 8.75 29.6042 8.67917 29.4625 8.5375C29.3208 8.39583 29.25 8.21667 29.25 8C29.25 7.78333 29.3208 7.60417 29.4625 7.4625C29.6042 7.32083 29.7833 7.25 30 7.25C30.2167 7.25 30.3958 7.32083 30.5375 7.4625C30.6792 7.60417 30.75 7.78333 30.75 8C30.75 8.21667 30.6792 8.39583 30.5375 8.5375C30.3958 8.67917 30.2167 8.75 30 8.75ZM29 5.5V4.5C29 4.21667 29.0958 3.97917 29.2875 3.7875C29.4792 3.59583 29.7167 3.5 30 3.5C30.2833 3.5 30.5208 3.59583 30.7125 3.7875C30.9042 3.97917 31 4.21667 31 4.5V5.5H29Z" fill="#25EB32"/>
<path d="M10 14C8.23333 14 6.69583 13.4292 5.3875 12.2875C4.07917 11.1458 3.30833 9.71667 3.075 8H0V6H3.075C3.30833 4.28333 4.07917 2.85417 5.3875 1.7125C6.69583 0.570833 8.23333 0 10 0C11.7667 0 13.3042 0.570833 14.6125 1.7125C15.9208 2.85417 16.6917 4.28333 16.925 6H20V8H16.925C16.6917 9.71667 15.9208 11.1458 14.6125 12.2875C13.3042 13.4292 11.7667 14 10 14ZM10 12C11.3833 12 12.5625 11.5125 13.5375 10.5375C14.5125 9.5625 15 8.38333 15 7C15 5.61667 14.5125 4.4375 13.5375 3.4625C12.5625 2.4875 11.3833 2 10 2C8.61667 2 7.4375 2.4875 6.4625 3.4625C5.4875 4.4375 5 5.61667 5 7C5 8.38333 5.4875 9.5625 6.4625 10.5375C7.4375 11.5125 8.61667 12 10 12ZM8 10.5H12C12.2833 10.5 12.5208 10.4042 12.7125 10.2125C12.9042 10.0208 13 9.78333 13 9.5V6.5C13 6.21667 12.9042 5.97917 12.7125 5.7875C12.5208 5.59583 12.2833 5.5 12 5.5V4.6C12 4.01667 11.8083 3.52083 11.425 3.1125C11.0417 2.70417 10.5667 2.5 10 2.5C9.45 2.5 8.97917 2.69583 8.5875 3.0875C8.19583 3.47917 8 3.95 8 4.5V5.5C7.71667 5.5 7.47917 5.59583 7.2875 5.7875C7.09583 5.97917 7 6.21667 7 6.5V9.5C7 9.78333 7.09583 10.0208 7.2875 10.2125C7.47917 10.4042 7.71667 10.5 8 10.5ZM10 8.75C9.78333 8.75 9.60417 8.67917 9.4625 8.5375C9.32083 8.39583 9.25 8.21667 9.25 8C9.25 7.78333 9.32083 7.60417 9.4625 7.4625C9.60417 7.32083 9.78333 7.25 10 7.25C10.2167 7.25 10.3958 7.32083 10.5375 7.4625C10.6792 7.60417 10.75 7.78333 10.75 8C10.75 8.21667 10.6792 8.39583 10.5375 8.5375C10.3958 8.67917 10.2167 8.75 10 8.75ZM9 5.5V4.5C9 4.21667 9.09583 3.97917 9.2875 3.7875C9.47917 3.59583 9.71667 3.5 10 3.5C10.2833 3.5 10.5208 3.59583 10.7125 3.7875C10.9042 3.97917 11 4.21667 11 4.5V5.5H9Z" fill="#5F6368"/>
</svg>
