<svg width="26" height="20" viewBox="0 0 26 20" fill="none" xmlns="http://www.w3.org/2000/svg">
<path d="M3 20C2.3125 20 1.72396 19.7552 1.23438 19.2656C0.744792 18.776 0.5 18.1875 0.5 17.5V2.5C0.5 1.8125 0.744792 1.22396 1.23438 0.734375C1.72396 0.244792 2.3125 0 3 0H16.75C17.1458 0 17.5208 0.0885417 17.875 0.265625C18.2292 0.442708 18.5208 0.6875 18.75 1L25.5 10L18.75 19C18.5208 19.3125 18.2292 19.5573 17.875 19.7344C17.5208 19.9115 17.1458 20 16.75 20H3ZM3 17.5H16.75L22.375 10L16.75 2.5H3V17.5Z" fill="white"/>
</svg>
