<svg width="58" height="48" viewBox="0 0 58 48" fill="none" xmlns="http://www.w3.org/2000/svg">
<path d="M54.4386 0H3.5614C1.59449 0 0 1.92862 0 4.30769V43.6923C0 46.0714 1.59449 48 3.5614 48H54.4386C56.4055 48 58 46.0714 58 43.6923V4.30769C58 1.92862 56.4055 0 54.4386 0Z" fill="white"/>
<path fill-rule="evenodd" clip-rule="evenodd" d="M20.9816 35.2662V38.3217H20.312V37.9508C20.0996 38.2259 19.7774 38.3986 19.3394 38.3986C18.4758 38.3986 17.7989 37.7276 17.7989 36.7939C17.7989 35.861 18.4758 35.1893 19.3394 35.1893C19.7774 35.1893 20.0996 35.362 20.312 35.6371V35.2662H20.9816ZM19.4227 35.8157C18.8431 35.8157 18.4883 36.2569 18.4883 36.7939C18.4883 37.331 18.8431 37.7722 19.4227 37.7722C19.9765 37.7722 20.3504 37.35 20.3504 36.7939C20.3504 36.2379 19.9765 35.8157 19.4227 35.8157ZM43.6098 36.7939C43.6098 36.2569 43.9645 35.8157 44.5442 35.8157C45.0988 35.8157 45.4719 36.2379 45.4719 36.7939C45.4719 37.35 45.0988 37.7722 44.5442 37.7722C43.9645 37.7722 43.6098 37.331 43.6098 36.7939ZM46.104 34.0391V38.3217H45.4336V37.9508C45.2211 38.2259 44.8989 38.3986 44.4609 38.3986C43.5973 38.3986 42.9203 37.7276 42.9203 36.7939C42.9203 35.861 43.5973 35.1893 44.4609 35.1893C44.8989 35.1893 45.2211 35.362 45.4336 35.6371V34.0391H46.104ZM29.2936 35.7842C29.725 35.7842 30.0022 36.0527 30.0731 36.5254H28.475C28.5465 36.0842 28.8164 35.7842 29.2936 35.7842ZM27.7729 36.7939C27.7729 35.8412 28.4042 35.1893 29.3069 35.1893C30.1697 35.1893 30.7626 35.8412 30.7692 36.7939C30.7692 36.8832 30.7626 36.9666 30.756 37.0493H28.4691C28.5658 37.5995 28.9587 37.7979 29.3901 37.7979C29.6991 37.7979 30.0281 37.6822 30.2862 37.4781L30.6143 37.9705C30.2405 38.2837 29.8157 38.3986 29.3519 38.3986C28.43 38.3986 27.7729 37.7657 27.7729 36.7939ZM37.3924 36.7939C37.3924 36.2569 37.7471 35.8157 38.3267 35.8157C38.8805 35.8157 39.2544 36.2379 39.2544 36.7939C39.2544 37.35 38.8805 37.7722 38.3267 37.7722C37.7471 37.7722 37.3924 37.331 37.3924 36.7939ZM39.8857 35.2662V38.3217H39.2161V37.9508C39.003 38.2259 38.6814 38.3986 38.2433 38.3986C37.3798 38.3986 36.7028 37.7276 36.7028 36.7939C36.7028 35.861 37.3798 35.1893 38.2433 35.1893C38.6814 35.1893 39.003 35.362 39.2161 35.6371V35.2662H39.8857ZM33.6106 36.7939C33.6106 37.721 34.2611 38.3986 35.2537 38.3986C35.7175 38.3986 36.0265 38.2962 36.3614 38.0341L36.0398 37.4971C35.7884 37.6764 35.5243 37.7722 35.2338 37.7722C34.6991 37.7657 34.3061 37.3822 34.3061 36.7939C34.3061 36.2057 34.6991 35.8222 35.2338 35.8157C35.5243 35.8157 35.7884 35.9115 36.0398 36.0908L36.3614 35.5536C36.0265 35.2917 35.7175 35.1893 35.2537 35.1893C34.2611 35.1893 33.6106 35.8669 33.6106 36.7939ZM41.4321 35.6371C41.6061 35.3686 41.8576 35.1893 42.2441 35.1893C42.3797 35.1893 42.573 35.215 42.7212 35.2727L42.5147 35.8991C42.3731 35.8412 42.2315 35.8222 42.0959 35.8222C41.6578 35.8222 41.4388 36.1032 41.4388 36.6088V38.3217H40.7684V35.2662H41.4321V35.6371ZM24.2936 35.5091C23.9713 35.2983 23.5274 35.1893 23.0377 35.1893C22.2575 35.1893 21.7552 35.5603 21.7552 36.1676C21.7552 36.6659 22.1292 36.9732 22.818 37.0691L23.1343 37.1136C23.5015 37.165 23.6749 37.2608 23.6749 37.4334C23.6749 37.6698 23.4301 37.8044 22.9728 37.8044C22.509 37.8044 22.1742 37.6574 21.9485 37.4846L21.6329 38.002C22.0001 38.2705 22.464 38.3986 22.9662 38.3986C23.8555 38.3986 24.371 37.9829 24.371 37.4012C24.371 36.8641 23.9654 36.5832 23.2951 36.4874L22.9794 36.442C22.6897 36.4039 22.4573 36.3469 22.4573 36.142C22.4573 35.9181 22.6763 35.7842 23.0436 35.7842C23.4367 35.7842 23.8172 35.9312 24.0038 36.0462L24.2936 35.5091ZM32.1225 35.6371C32.2958 35.3686 32.5473 35.1893 32.9336 35.1893C33.0694 35.1893 33.2626 35.215 33.4108 35.2727L33.2043 35.8991C33.0628 35.8412 32.9211 35.8222 32.7854 35.8222C32.3474 35.8222 32.1284 36.1032 32.1284 36.6088V38.3217H31.4588V35.2662H32.1225V35.6371ZM27.2191 35.2662H26.124V34.3391H25.447V35.2662H24.8224V35.8734H25.447V37.2674C25.447 37.9764 25.7242 38.3986 26.5163 38.3986C26.8068 38.3986 27.1417 38.3093 27.3541 38.1622L27.1608 37.5929C26.961 37.7079 26.742 37.7657 26.568 37.7657C26.2331 37.7657 26.124 37.5608 26.124 37.2541V35.8734H27.2191V35.2662ZM17.2066 36.4039V38.3217H16.5296V36.6212C16.5296 36.1032 16.3106 35.8157 15.8534 35.8157C15.4087 35.8157 15.0997 36.0974 15.0997 36.6279V38.3217H14.4227V36.6212C14.4227 36.1032 14.1978 35.8157 13.7531 35.8157C13.2951 35.8157 12.9988 36.0974 12.9988 36.6279V38.3217H12.3225V35.2662H12.9929V35.6429C13.2443 35.2852 13.5659 35.1893 13.8947 35.1893C14.3652 35.1893 14.7001 35.3942 14.9124 35.7329C15.1963 35.3042 15.6019 35.1827 15.995 35.1893C16.7427 35.1959 17.2066 35.6817 17.2066 36.4039Z" fill="#231F20"/>
<path d="M34.2204 30.074H24.0715V11.9775H34.2204V30.074Z" fill="#FF5F00"/>
<path d="M24.7156 21.0265C24.7156 17.3556 26.4478 14.0856 29.1454 11.9783C27.1728 10.4373 24.6831 9.51758 21.9774 9.51758C15.5719 9.51758 10.3794 14.6703 10.3794 21.0265C10.3794 27.3828 15.5719 32.5355 21.9774 32.5355C24.6831 32.5355 27.1728 31.6157 29.1454 30.0747C26.4478 27.9675 24.7156 24.6975 24.7156 21.0265Z" fill="#EB001B"/>
<path d="M47.9121 21.0265C47.9121 27.3828 42.7196 32.5355 36.3141 32.5355C33.6083 32.5355 31.1189 31.6157 29.1454 30.0747C31.8438 27.9675 33.576 24.6975 33.576 21.0265C33.576 17.3556 31.8438 14.0856 29.1454 11.9783C31.1189 10.4373 33.6083 9.51758 36.3141 9.51758C42.7196 9.51758 47.9121 14.6703 47.9121 21.0265Z" fill="#F79E1B"/>
</svg>
