<svg width="16" height="15" viewBox="0 0 16 15" fill="none" xmlns="http://www.w3.org/2000/svg">
<path d="M2.44492 15C2.03583 15 1.68562 14.8164 1.3943 14.4492C1.10297 14.082 0.957311 13.6406 0.957311 13.125V1.875C0.957311 1.35937 1.10297 0.917969 1.3943 0.550781C1.68562 0.183594 2.03583 0 2.44492 0H14.3458C14.7549 0 15.1051 0.183594 15.3964 0.550781C15.6877 0.917969 15.8334 1.35937 15.8334 1.875V13.125C15.8334 13.6406 15.6877 14.082 15.3964 14.4492C15.1051 14.8164 14.7549 15 14.3458 15H2.44492ZM8.39534 8.4375L2.44492 3.75V13.125H14.3458V3.75L8.39534 8.4375ZM8.39534 6.5625L14.3458 1.875H2.44492L8.39534 6.5625ZM2.44492 3.75V1.875V13.125V3.75Z" fill="#FE5829"/>
<path d="M2.19701 15C1.82201 15 1.50099 14.8272 1.23394 14.4816C0.966897 14.136 0.833374 13.7206 0.833374 13.2353V2.64706C0.833374 2.16176 0.966897 1.74632 1.23394 1.40074C1.50099 1.05515 1.82201 0.882353 2.19701 0.882353H13.1061C13.4811 0.882353 13.8022 1.05515 14.0692 1.40074C14.3362 1.74632 14.4698 2.16176 14.4698 2.64706V13.2353C14.4698 13.7206 14.3362 14.136 14.0692 14.4816C13.8022 14.8272 13.4811 15 13.1061 15H2.19701ZM7.65157 8.82353L2.19701 4.41176V13.2353H13.1061V4.41176L7.65157 8.82353ZM7.65157 7.05882L13.1061 2.64706H2.19701L7.65157 7.05882ZM2.19701 4.41176V2.64706V13.2353V4.41176Z" fill="#FFFFF0"/>
</svg>
