<svg width="19" height="15" viewBox="0 0 19 15" fill="none" xmlns="http://www.w3.org/2000/svg">
<path d="M1.9 15C1.3775 15 0.930208 14.8164 0.558125 14.4492C0.186042 14.082 0 13.6406 0 13.125V1.875C0 1.35937 0.186042 0.917969 0.558125 0.550781C0.930208 0.183594 1.3775 0 1.9 0H17.1C17.6225 0 18.0698 0.183594 18.4419 0.550781C18.814 0.917969 19 1.35937 19 1.875V13.125C19 13.6406 18.814 14.082 18.4419 14.4492C18.0698 14.8164 17.6225 15 17.1 15H1.9ZM9.5 8.4375L1.9 3.75V13.125H17.1V3.75L9.5 8.4375ZM9.5 6.5625L17.1 1.875H1.9L9.5 6.5625ZM1.9 3.75V1.875V13.125V3.75Z" fill="#FE5829"/>
<path d="M1.80952 15C1.3119 15 0.885913 14.8272 0.531548 14.4816C0.177183 14.136 0 13.7206 0 13.2353V2.64706C0 2.16176 0.177183 1.74632 0.531548 1.40074C0.885913 1.05515 1.3119 0.882353 1.80952 0.882353H16.2857C16.7833 0.882353 17.2093 1.05515 17.5637 1.40074C17.9181 1.74632 18.0952 2.16176 18.0952 2.64706V13.2353C18.0952 13.7206 17.9181 14.136 17.5637 14.4816C17.2093 14.8272 16.7833 15 16.2857 15H1.80952ZM9.04762 8.82353L1.80952 4.41176V13.2353H16.2857V4.41176L9.04762 8.82353ZM9.04762 7.05882L16.2857 2.64706H1.80952L9.04762 7.05882ZM1.80952 4.41176V2.64706V13.2353V4.41176Z" fill="black"/>
</svg>
