<svg width="44" height="44" viewBox="0 0 44 44" fill="none" xmlns="http://www.w3.org/2000/svg">
<path d="M44 22C44 34.1503 34.1503 44 22 44C9.84974 44 0 34.1503 0 22C0 9.84974 9.84974 0 22 0C34.1503 0 44 9.84974 44 22Z" fill="black"/>
<path d="M42 22C42 33.0457 33.0457 42 22 42C10.9543 42 2 33.0457 2 22C2 10.9543 10.9543 2 22 2C33.0457 2 42 10.9543 42 22Z" fill="#F9714B"/>
<path d="M38 22C38 30.8366 30.8366 38 22 38C13.1634 38 6 30.8366 6 22C6 13.1634 13.1634 6 22 6C30.8366 6 38 13.1634 38 22Z" fill="#FF6236"/>
<path d="M34 22C34 28.6274 28.6274 34 22 34C15.3726 34 10 28.6274 10 22C10 15.3726 15.3726 10 22 10C28.6274 10 34 15.3726 34 22Z" fill="#FF5322"/>
<path d="M30 22C30 26.4183 26.4183 30 22 30C17.5817 30 14 26.4183 14 22C14 17.5817 17.5817 14 22 14C26.4183 14 30 17.5817 30 22Z" fill="#FF3800"/>
</svg>
