<svg width="20" height="18" viewBox="0 0 20 18" fill="none" xmlns="http://www.w3.org/2000/svg">
<path d="M2.00005 18V5.1L0.0500488 0.85L1.85005 0L4.20005 5.05H15.8L18.15 0L19.95 0.85L18 5.1V18H2.00005ZM8.00005 11H12C12.2834 11 12.5209 10.9042 12.7125 10.7125C12.9042 10.5208 13 10.2833 13 10C13 9.71667 12.9042 9.47917 12.7125 9.2875C12.5209 9.09583 12.2834 9 12 9H8.00005C7.71672 9 7.47922 9.09583 7.28755 9.2875C7.09588 9.47917 7.00005 9.71667 7.00005 10C7.00005 10.2833 7.09588 10.5208 7.28755 10.7125C7.47922 10.9042 7.71672 11 8.00005 11ZM4.00005 16H16V7.05H4.00005V16Z" fill="black"/>
</svg>
