<svg width="60" height="47" viewBox="0 0 60 47" fill="none" xmlns="http://www.w3.org/2000/svg">
<path d="M58.9474 0H1.05263C-1.18558 0 -3 1.88844 -3 4.21795V42.7821C-3 45.1116 -1.18558 47 1.05263 47H58.9474C61.1856 47 63 45.1116 63 42.7821V4.21795C63 1.88844 61.1856 0 58.9474 0Z" fill="white"/>
<path fill-rule="evenodd" clip-rule="evenodd" d="M27.3504 23.2557L27.6116 21.6472L27.0297 21.6341H24.2512L26.1822 9.76457C26.1882 9.72863 26.2076 9.69527 26.2361 9.67153C26.2646 9.64779 26.3009 9.63477 26.339 9.63477H31.0242C32.5796 9.63477 33.653 9.94849 34.2134 10.5678C34.4762 10.8583 34.6434 11.162 34.7244 11.496C34.8094 11.8466 34.8108 12.2655 34.7279 12.7764L34.7219 12.8136V13.141L34.9847 13.2853C35.2059 13.3991 35.3817 13.5293 35.5166 13.6783C35.7413 13.9268 35.8867 14.2426 35.9481 14.6168C36.0116 15.0017 35.9906 15.4599 35.8867 15.9785C35.7668 16.575 35.573 17.0946 35.3113 17.5197C35.0706 17.9114 34.7639 18.2364 34.3997 18.4881C34.0521 18.7274 33.639 18.909 33.1721 19.0252C32.7194 19.1394 32.2035 19.197 31.6375 19.197H31.2729C31.0123 19.197 30.759 19.2881 30.5602 19.4512C30.3609 19.6178 30.2291 19.8454 30.1886 20.0942L30.1611 20.2391L29.6995 23.0742L29.6786 23.1782C29.673 23.2112 29.6635 23.2276 29.6496 23.2387C29.6372 23.2489 29.6193 23.2557 29.6017 23.2557H27.3504Z" fill="#28356A"/>
<path fill-rule="evenodd" clip-rule="evenodd" d="M35.2333 12.8516C35.2195 12.9382 35.2034 13.0268 35.1854 13.1179C34.5676 16.1932 32.4538 17.2556 29.7541 17.2556H28.3795C28.0493 17.2556 27.771 17.4879 27.7197 17.8036L26.8166 23.3571C26.7832 23.5645 26.948 23.7512 27.1636 23.7512H29.6017C29.8903 23.7512 30.1356 23.5479 30.1811 23.2719L30.205 23.1519L30.664 20.3279L30.6936 20.173C30.7385 19.896 30.9843 19.6926 31.2729 19.6926H31.6376C33.9996 19.6926 35.8487 18.763 36.3893 16.0726C36.6149 14.9487 36.4981 14.0103 35.9007 13.3503C35.7199 13.1514 35.4957 12.9861 35.2333 12.8516Z" fill="#298FC2"/>
<path fill-rule="evenodd" clip-rule="evenodd" d="M34.5871 12.6017C34.4927 12.575 34.3953 12.5508 34.2954 12.529C34.195 12.5077 34.0921 12.4889 33.9862 12.4723C33.6157 12.4143 33.2095 12.3867 32.7745 12.3867H29.1023C29.0118 12.3867 28.9259 12.4065 28.8491 12.4423C28.6796 12.5213 28.5538 12.6767 28.5234 12.867L27.7422 17.6637L27.7197 17.8036C27.771 17.4879 28.0493 17.2556 28.3795 17.2556H29.7541C32.4538 17.2556 34.5676 16.1932 35.1854 13.1179C35.2034 13.0268 35.2195 12.9382 35.2333 12.8516C35.077 12.7711 34.9078 12.7023 34.7256 12.6437C34.6805 12.6292 34.634 12.6153 34.5871 12.6017Z" fill="#22284F"/>
<path fill-rule="evenodd" clip-rule="evenodd" d="M28.5234 12.867C28.5539 12.6767 28.6795 12.5219 28.8489 12.4435C28.9263 12.4076 29.0117 12.3878 29.1022 12.3878H32.7744C33.2094 12.3878 33.6155 12.4154 33.9862 12.4735C34.092 12.4899 34.1948 12.5089 34.2953 12.5302C34.3952 12.5519 34.4926 12.5761 34.587 12.6027C34.6339 12.6163 34.68 12.6298 34.7256 12.6437C34.9078 12.7023 35.077 12.7711 35.2333 12.8516C35.4172 11.7151 35.2323 10.9419 34.5985 10.2412C33.8997 9.46978 32.6386 9.13965 31.0247 9.13965H26.3394C26.0098 9.13965 25.7286 9.37199 25.6776 9.68828L23.7262 21.6798C23.6877 21.917 23.8765 22.1311 24.1233 22.1311H27.0157L28.5234 12.867Z" fill="#28356A"/>
<path fill-rule="evenodd" clip-rule="evenodd" d="M13.5462 26.5205H10.1302C9.89638 26.5205 9.69757 26.6851 9.66105 26.9089L8.27945 35.4005C8.25204 35.5682 8.38593 35.7191 8.56123 35.7191H10.192C10.4257 35.7191 10.6246 35.5546 10.6611 35.3304L11.0337 33.04C11.0696 32.8158 11.2688 32.6512 11.5022 32.6512H12.5836C14.8338 32.6512 16.1324 31.5955 16.4717 29.5038C16.6245 28.5886 16.4781 27.8696 16.0359 27.366C15.5505 26.813 14.6894 26.5205 13.5462 26.5205ZM13.9402 29.622C13.7534 30.8102 12.8168 30.8102 11.9114 30.8102H11.3958L11.7574 28.591C11.779 28.4569 11.8987 28.3581 12.0387 28.3581H12.275C12.8918 28.3581 13.4737 28.3581 13.7744 28.699C13.9537 28.9023 14.0086 29.2045 13.9402 29.622Z" fill="#28356A"/>
<path fill-rule="evenodd" clip-rule="evenodd" d="M23.8445 29.5203H22.2087C22.0693 29.5203 21.9488 29.6191 21.9274 29.7532L21.855 30.1967L21.7407 30.036C21.3866 29.5377 20.5968 29.3711 19.8087 29.3711C18.0009 29.3711 16.4571 30.6984 16.1563 32.5602C16 33.4889 16.2222 34.377 16.7658 34.9963C17.2643 35.5657 17.9776 35.803 18.8261 35.803C20.2827 35.803 21.0902 34.8951 21.0902 34.8951L21.0174 35.3358C20.99 35.5042 21.1238 35.6553 21.2981 35.6553H22.7716C23.0059 35.6553 23.2037 35.4907 23.2407 35.2665L24.1248 29.8389C24.1527 29.6718 24.0192 29.5203 23.8445 29.5203ZM21.5642 32.6068C21.4065 33.5126 20.6648 34.1208 19.7187 34.1208C19.2438 34.1208 18.8642 33.9731 18.6203 33.6933C18.3785 33.4154 18.2868 33.0198 18.3635 32.5791C18.511 31.6809 19.2652 31.0528 20.1968 31.0528C20.6613 31.0528 21.0389 31.2026 21.2877 31.4847C21.5368 31.7699 21.6358 32.168 21.5642 32.6068Z" fill="#28356A"/>
<path fill-rule="evenodd" clip-rule="evenodd" d="M32.4306 29.6553H30.7867C30.6299 29.6553 30.4826 29.7309 30.3937 29.8573L28.1264 33.0947L27.1654 29.9836C27.105 29.7889 26.9197 29.6553 26.7099 29.6553H25.0947C24.8982 29.6553 24.762 29.8413 24.8244 30.0205L26.635 35.1715L24.9328 37.5011C24.7989 37.6846 24.9337 37.9369 25.165 37.9369H26.8068C26.9627 37.9369 27.1085 37.8632 27.1969 37.7394L32.6643 30.0887C32.7953 29.9057 32.6608 29.6553 32.4306 29.6553Z" fill="#28356A"/>
<path fill-rule="evenodd" clip-rule="evenodd" d="M37.9105 26.5205H34.4941C34.2608 26.5205 34.062 26.6851 34.0255 26.9089L32.644 35.4005C32.6165 35.5682 32.7504 35.7191 32.9247 35.7191H34.678C34.8407 35.7191 34.98 35.604 35.0055 35.4471L35.3976 33.04C35.4335 32.8158 35.633 32.6512 35.8662 32.6512H36.9471C39.1977 32.6512 40.4959 31.5955 40.8356 29.5038C40.9889 28.5886 40.8416 27.8696 40.3995 27.366C39.9144 26.813 39.0538 26.5205 37.9105 26.5205ZM38.3046 29.622C38.1183 30.8102 37.1817 30.8102 36.2757 30.8102H35.7608L36.1229 28.591C36.1443 28.4569 36.2632 28.3581 36.4036 28.3581H36.6398C37.2562 28.3581 37.8386 28.3581 38.1392 28.699C38.3186 28.9023 38.373 29.2045 38.3046 29.622Z" fill="#298FC2"/>
<path fill-rule="evenodd" clip-rule="evenodd" d="M48.2068 29.5203H46.5719C46.4316 29.5203 46.3122 29.6191 46.2912 29.7532L46.2188 30.1967L46.1039 30.036C45.7498 29.5377 44.9606 29.3711 44.1723 29.3711C42.3647 29.3711 40.8214 30.6984 40.5208 32.5602C40.3649 33.4889 40.586 34.377 41.1294 34.9963C41.6291 35.5657 42.3412 35.803 43.1899 35.803C44.6464 35.803 45.454 34.8951 45.454 34.8951L45.3812 35.3358C45.3538 35.5042 45.4875 35.6553 45.6629 35.6553H47.1359C47.3691 35.6553 47.5679 35.4907 47.6044 35.2665L48.489 29.8389C48.516 29.6718 48.382 29.5203 48.2068 29.5203ZM45.9267 32.6068C45.7698 33.5126 45.0271 34.1208 44.0809 34.1208C43.6069 34.1208 43.2264 33.9731 42.9825 33.6933C42.741 33.4154 42.6499 33.0198 42.7258 32.5791C42.8742 31.6809 43.6274 31.0528 44.5591 31.0528C45.0235 31.0528 45.4011 31.2026 45.6499 31.4847C45.9001 31.7699 45.999 32.168 45.9267 32.6068Z" fill="#298FC2"/>
<path fill-rule="evenodd" clip-rule="evenodd" d="M49.9991 26.7539L48.5971 35.4009C48.5697 35.5686 48.7034 35.7195 48.8777 35.7195H50.2873C50.5216 35.7195 50.7204 35.555 50.7563 35.3308L52.1388 26.8396C52.1665 26.672 52.0325 26.5205 51.8582 26.5205H50.2799C50.1405 26.5209 50.0206 26.6198 49.9991 26.7539Z" fill="#298FC2"/>
</svg>
