<svg width="30" height="30" viewBox="0 0 30 30" fill="none" xmlns="http://www.w3.org/2000/svg">
<path d="M15.3 12.7767C13.8837 12.7767 12.7071 12.3127 11.77 11.3847C10.8331 10.4566 10.3647 9.29111 10.3647 7.88834C10.3647 6.48557 10.8331 5.3201 11.77 4.39193C12.7071 3.46398 13.8837 3 15.3 3C16.7162 3 17.8929 3.46398 18.83 4.39193C19.7669 5.3201 20.2353 6.48557 20.2353 7.88834C20.2353 9.29111 19.7669 10.4566 18.83 11.3847C17.8929 12.3127 16.7162 12.7767 15.3 12.7767ZM5 23V19.8119C5 19.0325 5.19849 18.3506 5.59547 17.7661C5.99245 17.1816 6.50927 16.7371 7.14594 16.4325C8.54781 15.7878 9.9175 15.3043 11.255 14.9819C12.5927 14.6595 13.941 14.4983 15.3 14.4983C16.659 14.4983 18.0036 14.663 19.3341 14.9924C20.6645 15.3219 22.0301 15.8033 23.4309 16.4366C24.0862 16.7431 24.6115 17.1874 25.0068 17.7696C25.4023 18.3517 25.6 19.0325 25.6 19.8119V23H5ZM7.14594 20.8745H23.4541V19.8119C23.4541 19.5073 23.3665 19.2204 23.1914 18.9511C23.0161 18.6818 22.7961 18.4799 22.5316 18.3454C21.2297 17.7147 20.0029 17.2702 18.8512 17.0118C17.6998 16.7531 16.516 16.6238 15.3 16.6238C14.084 16.6238 12.893 16.7531 11.7272 17.0118C10.5614 17.2702 9.33469 17.7147 8.04719 18.3454C7.78239 18.4799 7.56599 18.6818 7.39797 18.9511C7.22995 19.2204 7.14594 19.5073 7.14594 19.8119V20.8745ZM15.3 10.6515C16.094 10.6515 16.7573 10.3875 17.2902 9.85955C17.8232 9.33181 18.0897 8.67474 18.0897 7.88834C18.0897 7.10194 17.8232 6.44486 17.2902 5.91712C16.7573 5.38917 16.094 5.1252 15.3 5.1252C14.506 5.1252 13.8427 5.38917 13.3098 5.91712C12.7768 6.44486 12.5103 7.10194 12.5103 7.88834C12.5103 8.67474 12.7768 9.33181 13.3098 9.85955C13.8427 10.3875 14.506 10.6515 15.3 10.6515Z" fill="#FE5829"/>
<path d="M14 12.5811C12.625 12.5811 11.4826 12.1264 10.5728 11.217C9.66323 10.3074 9.20844 9.16528 9.20844 7.79057C9.20844 6.41585 9.66323 5.2737 10.5728 4.36409C11.4826 3.4547 12.625 3 14 3C15.375 3 16.5174 3.4547 17.4272 4.36409C18.3368 5.2737 18.7916 6.41585 18.7916 7.79057C18.7916 9.16528 18.3368 10.3074 17.4272 11.217C16.5174 12.1264 15.375 12.5811 14 12.5811ZM4 22.6V19.4756C4 18.7118 4.19271 18.0435 4.57812 17.4708C4.96354 16.898 5.46531 16.4623 6.08344 16.1638C7.44448 15.5321 8.77427 15.0582 10.0728 14.7423C11.3716 14.4263 12.6806 14.2683 14 14.2683C15.3194 14.2683 16.6249 14.4297 17.9166 14.7526C19.2082 15.0754 20.5341 15.5472 21.8941 16.1679C22.5303 16.4683 23.0403 16.9037 23.4241 17.4742C23.808 18.0447 24 18.7118 24 19.4756V22.6H4ZM6.08344 20.517H21.9166V19.4756C21.9166 19.1772 21.8316 18.896 21.6616 18.6321C21.4914 18.3682 21.2778 18.1703 21.0209 18.0384C19.757 17.4204 18.5659 16.9848 17.4478 16.7315C16.3299 16.478 15.1806 16.3513 14 16.3513C12.8194 16.3513 11.6631 16.478 10.5312 16.7315C9.39937 16.9848 8.20844 17.4204 6.95844 18.0384C6.70135 18.1703 6.49125 18.3682 6.32812 18.6321C6.165 18.896 6.08344 19.1772 6.08344 19.4756V20.517ZM14 10.4984C14.7708 10.4984 15.4149 10.2398 15.9322 9.72236C16.4497 9.20517 16.7084 8.56124 16.7084 7.79057C16.7084 7.0199 16.4497 6.37597 15.9322 5.85878C15.4149 5.34139 14.7708 5.08269 14 5.08269C13.2292 5.08269 12.5851 5.34139 12.0678 5.85878C11.5503 6.37597 11.2916 7.0199 11.2916 7.79057C11.2916 8.56124 11.5503 9.20517 12.0678 9.72236C12.5851 10.2398 13.2292 10.4984 14 10.4984Z" fill="black"/>
</svg>
