<svg width="22" height="26" viewBox="0 0 22 26" fill="none" xmlns="http://www.w3.org/2000/svg">
<path d="M2.29178 25.5C1.67303 25.5 1.13632 25.2934 0.681656 24.8803C0.227219 24.467 0 23.9791 0 23.4166V7.58344C0 7.02094 0.227219 6.53302 0.681656 6.11969C1.13632 5.70656 1.67303 5.5 2.29178 5.5H5.72928V5.29156C5.72928 3.95823 6.24101 2.82635 7.26447 1.89594C8.28816 0.965312 9.53333 0.5 11 0.5C12.4667 0.5 13.7118 0.965312 14.7355 1.89594C15.759 2.82635 16.2707 3.95823 16.2707 5.29156V5.5H19.7082C20.327 5.5 20.8637 5.70656 21.3183 6.11969C21.7728 6.53302 22 7.02094 22 7.58344V23.4166C22 23.9791 21.7728 24.467 21.3183 24.8803C20.8637 25.2934 20.327 25.5 19.7082 25.5H2.29178ZM2.29178 23.4166H19.7082V7.58344H16.2707V10.2916C16.2707 10.5868 16.1606 10.8342 15.9404 11.0338C15.7199 11.2335 15.4468 11.3334 15.1209 11.3334C14.7952 11.3334 14.5236 11.2335 14.3058 11.0338C14.0881 10.8342 13.9793 10.5868 13.9793 10.2916V7.58344H8.02072V10.2916C8.02072 10.5868 7.9106 10.8342 7.69038 11.0338C7.46992 11.2335 7.19675 11.3334 6.87088 11.3334C6.54523 11.3334 6.27355 11.2335 6.05584 11.0338C5.83814 10.8342 5.72928 10.5868 5.72928 10.2916V7.58344H2.29178V23.4166ZM8.02072 5.5H13.9793V5.29156C13.9793 4.53469 13.6909 3.89406 13.1141 3.36969C12.5373 2.84552 11.8326 2.58344 11 2.58344C10.1674 2.58344 9.46275 2.84552 8.88594 3.36969C8.30912 3.89406 8.02072 4.53469 8.02072 5.29156V5.5Z" fill="#FE5829"/>
<path d="M2.08344 25C1.52094 25 1.03302 24.7934 0.619688 24.3803C0.206563 23.967 4.76837e-07 23.4791 4.76837e-07 22.9166V7.08344C4.76837e-07 6.52094 0.206563 6.03302 0.619688 5.61969C1.03302 5.20656 1.52094 5 2.08344 5H5.20844V4.79156C5.20844 3.45823 5.67365 2.32635 6.60406 1.39594C7.53469 0.465312 8.66667 0 10 0C11.3333 0 12.4653 0.465312 13.3959 1.39594C14.3264 2.32635 14.7916 3.45823 14.7916 4.79156V5H17.9166C18.4791 5 18.967 5.20656 19.3803 5.61969C19.7934 6.03302 20 6.52094 20 7.08344V22.9166C20 23.4791 19.7934 23.967 19.3803 24.3803C18.967 24.7934 18.4791 25 17.9166 25H2.08344ZM2.08344 22.9166H17.9166V7.08344H14.7916V9.79156C14.7916 10.0868 14.6915 10.3342 14.4912 10.5338C14.2908 10.7335 14.0425 10.8334 13.7463 10.8334C13.4502 10.8334 13.2032 10.7335 13.0053 10.5338C12.8074 10.3342 12.7084 10.0868 12.7084 9.79156V7.08344H7.29156V9.79156C7.29156 10.0868 7.19146 10.3342 6.99125 10.5338C6.79083 10.7335 6.5425 10.8334 6.24625 10.8334C5.95021 10.8334 5.70323 10.7335 5.50531 10.5338C5.3074 10.3342 5.20844 10.0868 5.20844 9.79156V7.08344H2.08344V22.9166ZM7.29156 5H12.7084V4.79156C12.7084 4.03469 12.4463 3.39406 11.9219 2.86969C11.3975 2.34552 10.7569 2.08344 10 2.08344C9.24313 2.08344 8.6025 2.34552 8.07812 2.86969C7.55375 3.39406 7.29156 4.03469 7.29156 4.79156V5Z" fill="black"/>
</svg>
