<svg width="18" height="18" viewBox="0 0 18 18" fill="none" xmlns="http://www.w3.org/2000/svg">
<path d="M1.8 14.2105V16.1053H16.2V14.2105H1.8ZM1.8 3.78947H3.78C3.705 3.64737 3.65625 3.49737 3.63375 3.33947C3.61125 3.18158 3.6 3.01579 3.6 2.84211C3.6 2.05263 3.8625 1.38158 4.3875 0.828947C4.9125 0.276316 5.55 0 6.3 0C6.75 0 7.16625 0.122368 7.54875 0.367105C7.93125 0.611842 8.265 0.91579 8.55 1.27895L9 1.89474L9.45 1.27895C9.72 0.9 10.05 0.592105 10.44 0.355263C10.83 0.118421 11.25 0 11.7 0C12.45 0 13.0875 0.276316 13.6125 0.828947C14.1375 1.38158 14.4 2.05263 14.4 2.84211C14.4 3.01579 14.3888 3.18158 14.3663 3.33947C14.3438 3.49737 14.295 3.64737 14.22 3.78947H16.2C16.695 3.78947 17.1188 3.975 17.4713 4.34605C17.8238 4.71711 18 5.16316 18 5.68421V16.1053C18 16.6263 17.8238 17.0724 17.4713 17.4434C17.1188 17.8145 16.695 18 16.2 18H1.8C1.305 18 0.88125 17.8145 0.52875 17.4434C0.17625 17.0724 0 16.6263 0 16.1053V5.68421C0 5.16316 0.17625 4.71711 0.52875 4.34605C0.88125 3.975 1.305 3.78947 1.8 3.78947ZM1.8 11.3684H16.2V5.68421H11.61L13.5 8.38421L12.06 9.47368L9 5.11579L5.94 9.47368L4.5 8.38421L6.345 5.68421H1.8V11.3684ZM6.3 3.78947C6.555 3.78947 6.76875 3.69868 6.94125 3.51711C7.11375 3.33553 7.2 3.11053 7.2 2.84211C7.2 2.57368 7.11375 2.34868 6.94125 2.16711C6.76875 1.98553 6.555 1.89474 6.3 1.89474C6.045 1.89474 5.83125 1.98553 5.65875 2.16711C5.48625 2.34868 5.4 2.57368 5.4 2.84211C5.4 3.11053 5.48625 3.33553 5.65875 3.51711C5.83125 3.69868 6.045 3.78947 6.3 3.78947ZM11.7 3.78947C11.955 3.78947 12.1688 3.69868 12.3413 3.51711C12.5138 3.33553 12.6 3.11053 12.6 2.84211C12.6 2.57368 12.5138 2.34868 12.3413 2.16711C12.1688 1.98553 11.955 1.89474 11.7 1.89474C11.445 1.89474 11.2313 1.98553 11.0588 2.16711C10.8863 2.34868 10.8 2.57368 10.8 2.84211C10.8 3.11053 10.8863 3.33553 11.0588 3.51711C11.2313 3.69868 11.445 3.78947 11.7 3.78947Z" fill="black"/>
</svg>
