<svg width="15" height="15" viewBox="0 0 15 15" fill="none" xmlns="http://www.w3.org/2000/svg">
<path d="M15 7.5C15 11.6421 11.6421 15 7.5 15C3.35786 15 0 11.6421 0 7.5C0 3.35786 3.35786 0 7.5 0C11.6421 0 15 3.35786 15 7.5Z" fill="#A5A69D"/>
<path d="M13 7.5C13 10.5376 10.5376 13 7.5 13C4.46243 13 2 10.5376 2 7.5C2 4.46243 4.46243 2 7.5 2C10.5376 2 13 4.46243 13 7.5Z" fill="#FE5829"/>
<path d="M14.75 7.5C14.75 11.5041 11.5041 14.75 7.5 14.75C3.49594 14.75 0.25 11.5041 0.25 7.5C0.25 3.49594 3.49594 0.25 7.5 0.25C11.5041 0.25 14.75 3.49594 14.75 7.5ZM12.75 7.5C12.75 10.3995 10.3995 12.75 7.5 12.75C4.6005 12.75 2.25 10.3995 2.25 7.5C2.25 4.6005 4.6005 2.25 7.5 2.25C10.3995 2.25 12.75 4.6005 12.75 7.5ZM7.5 13.25C10.6756 13.25 13.25 10.6756 13.25 7.5C13.25 4.32436 10.6756 1.75 7.5 1.75C4.32436 1.75 1.75 4.32436 1.75 7.5C1.75 10.6756 4.32436 13.25 7.5 13.25Z" stroke="black" stroke-width="0.5"/>
</svg>
