<svg width="30" height="25" viewBox="0 0 30 25" fill="none" xmlns="http://www.w3.org/2000/svg">
<path d="M7.08344 22.9167C6.51052 22.9167 6.02 22.7467 5.61188 22.4068C5.20396 22.0667 5 21.6579 5 21.1805V10.1737C5 9.69627 5.20396 9.28751 5.61188 8.9474C6.02 8.60747 6.51052 8.4375 7.08344 8.4375H8.95844V6.07631C8.95844 4.68343 9.54771 3.4961 10.7262 2.51433C11.9048 1.53256 13.3301 1.04167 15.0022 1.04167C16.6743 1.04167 18.0989 1.53256 19.2759 2.51433C20.453 3.4961 21.0416 4.68343 21.0416 6.07631V8.4375H22.9166C23.4895 8.4375 23.98 8.60747 24.3881 8.9474C24.796 9.28751 25 9.69627 25 10.1737V21.1805C25 21.6579 24.796 22.0667 24.3881 22.4068C23.98 22.7467 23.4895 22.9167 22.9166 22.9167H7.08344ZM7.08344 21.1805H22.9166V10.1737H7.08344V21.1805ZM15.0034 17.7083C15.6747 17.7083 16.2482 17.5129 16.7241 17.1219C17.1997 16.7309 17.4375 16.2609 17.4375 15.7117C17.4375 15.1735 17.1984 14.6947 16.7203 14.2753C16.2424 13.8556 15.6678 13.6458 14.9966 13.6458C14.3253 13.6458 13.7518 13.8556 13.2759 14.2753C12.8003 14.6947 12.5625 15.1765 12.5625 15.7206C12.5625 16.2645 12.8016 16.7318 13.2797 17.1224C13.7576 17.513 14.3322 17.7083 15.0034 17.7083ZM11.0416 8.4375H18.9584V6.07631C18.9584 5.16016 18.5739 4.38134 17.8047 3.73985C17.0353 3.09853 16.1012 2.77787 15.0025 2.77787C13.9035 2.77787 12.9686 3.09853 12.1978 3.73985C11.427 4.38134 11.0416 5.16016 11.0416 6.07631V8.4375Z" fill="#FFFFF0"/>
</svg>
