<svg width="27" height="24" viewBox="0 0 27 24" fill="none" xmlns="http://www.w3.org/2000/svg">
<path d="M13 11.25L3 5V17.5H14.25V20H3C2.3125 20 1.72396 19.7552 1.23438 19.2656C0.744792 18.776 0.5 18.1875 0.5 17.5V2.5C0.5 1.8125 0.744792 1.22396 1.23438 0.734375C1.72396 0.244792 2.3125 0 3 0H23C23.6875 0 24.276 0.244792 24.7656 0.734375C25.2552 1.22396 25.5 1.8125 25.5 2.5V11.25H23V5L13 11.25ZM13 8.75L23 2.5H3L13 8.75ZM21.75 23.75L20 22L21.9688 20H16.75V17.5H21.9688L19.9688 15.5L21.75 13.75L26.75 18.75L21.75 23.75ZM3 5V18.75V11.25V11.3438V2.5V5Z" fill="white"/>
</svg>
