<svg width="59" height="41" viewBox="0 0 59 41" fill="none" xmlns="http://www.w3.org/2000/svg">
<path d="M55.3772 0H3.62281C1.62199 0 0 1.64736 0 3.67949V37.3205C0 39.3526 1.62199 41 3.62281 41H55.3772C57.378 41 59 39.3526 59 37.3205V3.67949C59 1.64736 57.378 0 55.3772 0Z" fill="white"/>
<path fill-rule="evenodd" clip-rule="evenodd" d="M31.2413 15.0958L28.3081 15.6761V13.4837L31.2413 12.9141V15.0958ZM37.3413 16.3101C36.1961 16.3101 35.4599 16.8046 35.0508 17.1484L34.8989 16.4821H32.328V29.0132L35.2495 28.4437L35.2612 25.4022C35.6819 25.6816 36.3012 26.0793 37.3295 26.0793C39.4213 26.0793 41.3261 24.5317 41.3261 21.1249C41.3144 18.0082 39.3863 16.3101 37.3413 16.3101ZM36.6401 23.7149C35.9506 23.7149 35.5416 23.4892 35.2612 23.2098L35.2495 19.2227C35.5534 18.911 35.974 18.696 36.6401 18.696C37.7035 18.696 38.4397 19.7922 38.4397 21.2001C38.4397 22.6402 37.7152 23.7149 36.6401 23.7149ZM50.5345 21.2323C50.5345 18.4811 49.0855 16.3101 46.316 16.3101C43.5347 16.3101 41.8519 18.4811 41.8519 21.2108C41.8519 24.4458 43.8385 26.0793 46.6899 26.0793C48.0806 26.0793 49.1323 25.7891 49.9269 25.3808V23.2313C49.1323 23.5967 48.2207 23.8224 47.0639 23.8224C45.9303 23.8224 44.9254 23.457 44.7968 22.1889H50.5112C50.5112 22.1296 50.5154 21.995 50.5202 21.84C50.5268 21.6294 50.5345 21.3809 50.5345 21.2323ZM44.7617 20.2113C44.7617 18.997 45.5681 18.4918 46.3043 18.4918C47.0172 18.4918 47.7767 18.997 47.7767 20.2113H44.7617ZM28.3081 16.4929H31.2413V25.8966H28.3081V16.4929ZM24.9776 16.4929L25.1646 17.2882C25.854 16.1275 27.2213 16.3639 27.5953 16.4929V18.9647C27.233 18.8465 26.0644 18.696 25.375 19.5235V25.8966H22.4535V16.4929H24.9776ZM19.3217 14.1608L16.4704 14.7196L16.4587 23.328C16.4587 24.9186 17.7558 26.0901 19.4853 26.0901C20.4436 26.0901 21.1447 25.9289 21.5303 25.7354V23.5537C21.1564 23.6934 19.31 24.1878 19.31 22.5972V18.782H21.5303V16.4929H19.31L19.3217 14.1608ZM12.4154 18.6423C11.7961 18.6423 11.4221 18.8035 11.4221 19.2227C11.4221 19.6803 12.0656 19.8815 12.8641 20.1313C14.1657 20.5385 15.8789 21.0744 15.8861 23.0594C15.8861 24.9831 14.215 26.0901 11.7844 26.0901C10.7794 26.0901 9.68095 25.9073 8.59412 25.4775V22.9196C9.57578 23.414 10.8144 23.7794 11.7844 23.7794C12.4388 23.7794 12.9062 23.6182 12.9062 23.1239C12.9062 22.6169 12.2086 22.3853 11.3663 22.1055C10.0837 21.6795 8.46558 21.1421 8.46558 19.3516C8.46558 17.4494 10.0432 16.3101 12.4154 16.3101C13.3853 16.3101 14.3436 16.4499 15.3135 16.8046V19.3301C14.4254 18.8894 13.3035 18.6423 12.4154 18.6423Z" fill="#6772E5"/>
</svg>
