<svg width="16" height="17" viewBox="0 0 16 17" fill="none" xmlns="http://www.w3.org/2000/svg">
<path d="M2.23823 16.619C6.36039 14.0618 10.9947 12.5414 15.1131 10.0764C15.4932 9.81481 15.7519 9.13265 15.35 8.79309C11.5117 5.49722 6.98668 3.18937 2.41 1.01803C1.91213 0.76693 1.42481 1.39363 1.82671 1.73319C1.24646 3.51056 3.02283 6.39949 4.20605 7.97138C2.4007 10.3455 1.28515 12.7938 1.02512 15.7848C0.998757 16.4302 1.71782 16.9212 2.23823 16.619ZM5.84422 7.4375C4.69775 6.09799 4.35202 4.37539 3.67414 2.87019C7.01525 4.76056 10.3084 6.69516 13.3024 9.17175C9.89996 11.0654 6.28758 12.4427 2.84094 14.2884C3.34394 12.1385 4.43702 10.2434 5.85102 8.4075C6.23115 8.14586 6.10966 7.72534 5.84422 7.4375Z" fill="black"/>
<path d="M13.5847 9.28117L9.43467 11.0594L5.87753 12.8375L2.91325 14.023L4.09896 11.0594L5.28467 9.28117L5.87753 8.68844V7.50299L5.28467 6.91026L4.69182 5.72481L4.09896 3.94663L3.5061 2.76117L4.69182 3.3539L8.24895 5.72481L9.43467 6.31753L12.9918 8.68844L13.5847 9.28117Z" fill="#FE5829"/>
<path d="M2.23823 16.619C6.36039 14.0618 10.9947 12.5414 15.1131 10.0764C15.4932 9.81481 15.7519 9.13265 15.35 8.79309C11.5117 5.49722 6.98668 3.18937 2.41 1.01803C1.91213 0.76693 1.42481 1.39363 1.82671 1.73319C1.24646 3.51056 3.02283 6.39949 4.20605 7.97138C2.4007 10.3455 1.28515 12.7938 1.02512 15.7848C0.998757 16.4302 1.71782 16.9212 2.23823 16.619ZM5.84422 7.4375C4.69775 6.09799 4.35202 4.37539 3.67414 2.87019C7.01525 4.76056 10.3084 6.69516 13.3024 9.17175C9.89996 11.0654 6.28758 12.4427 2.84094 14.2884C3.34394 12.1385 4.43702 10.2434 5.85102 8.4075C6.23115 8.14586 6.10966 7.72534 5.84422 7.4375Z" stroke="black" stroke-width="0.5"/>
<path d="M13.5847 9.28117L9.43467 11.0594L5.87753 12.8375L2.91325 14.023L4.09896 11.0594L5.28467 9.28117L5.87753 8.68844V7.50299L5.28467 6.91026L4.69182 5.72481L4.09896 3.94663L3.5061 2.76117L4.69182 3.3539L8.24895 5.72481L9.43467 6.31753L12.9918 8.68844L13.5847 9.28117Z" stroke="black" stroke-width="0.5"/>
</svg>
